ISO-10303-21;
HEADER;
FILE_DESCRIPTION(('FreeCAD Model'),'2;1');
FILE_NAME('Open CASCADE Shape Model','2026-08-14T16:15:40',('FreeCAD'),(
    'FreeCAD'),'Open CASCADE STEP processor 7.8','FreeCAD','Unknown');
FILE_SCHEMA(('AUTOMOTIVE_DESIGN { 1 0 10303 214 1 1 1 1 }'));
ENDSEC;
DATA;
#1 = APPLICATION_PROTOCOL_DEFINITION('international standard',
  'automotive_design',2000,#2);
#2 = APPLICATION_CONTEXT(
  'core data for automotive mechanical design processes');
#3 = SHAPE_DEFINITION_REPRESENTATION(#4,#10);
#4 = PRODUCT_DEFINITION_SHAPE('','',#5);
#5 = PRODUCT_DEFINITION('design','',#6,#9);
#6 = PRODUCT_DEFINITION_FORMATION('','',#7);
#7 = PRODUCT('Open CASCADE STEP translator 7.8 2',
  'Open CASCADE STEP translator 7.8 2','',(#8));
#8 = PRODUCT_CONTEXT('',#2,'mechanical');
#9 = PRODUCT_DEFINITION_CONTEXT('part definition',#2,'design');
#10 = ADVANCED_BREP_SHAPE_REPRESENTATION('',(#11,#15),#1891);
#11 = AXIS2_PLACEMENT_3D('',#12,#13,#14);
#12 = CARTESIAN_POINT('',(0.,0.,0.));
#13 = DIRECTION('',(0.,0.,1.));
#14 = DIRECTION('',(1.,0.,-0.));
#15 = MANIFOLD_SOLID_BREP('',#16);
#16 = CLOSED_SHELL('',(#17,#74,#125,#150,#514,#941,#958,#983,#995,#1017,
    #1034,#1051,#1068,#1085,#1102,#1119,#1136,#1153,#1170,#1187,#1204,
    #1221,#1238,#1255,#1272,#1289,#1306,#1323,#1340,#1357,#1374,#1391,
    #1408,#1425,#1442,#1459,#1471,#1488,#1500,#1517,#1534,#1551,#1576,
    #1601,#1618,#1635,#1652,#1669,#1700,#1724,#1748,#1765,#1796,#1820,
    #1844,#1861,#1879));
#17 = ADVANCED_FACE('',(#18),#69,.T.);
#18 = FACE_BOUND('',#19,.T.);
#19 = EDGE_LOOP('',(#20,#30,#39,#47,#55,#63));
#20 = ORIENTED_EDGE('',*,*,#21,.T.);
#21 = EDGE_CURVE('',#22,#24,#26,.T.);
#22 = VERTEX_POINT('',#23);
#23 = CARTESIAN_POINT('',(183.41795514234,-10.03377722952,0.));
#24 = VERTEX_POINT('',#25);
#25 = CARTESIAN_POINT('',(183.41795514234,-10.03377722952,4.8));
#26 = LINE('',#27,#28);
#27 = CARTESIAN_POINT('',(183.41795514234,-10.03377722952,0.));
#28 = VECTOR('',#29,1.);
#29 = DIRECTION('',(0.,0.,1.));
#30 = ORIENTED_EDGE('',*,*,#31,.F.);
#31 = EDGE_CURVE('',#32,#24,#34,.T.);
#32 = VERTEX_POINT('',#33);
#33 = CARTESIAN_POINT('',(185.97183121246,-10.02067144552,6.));
#34 = HYPERBOLA('',#35,9.999868329707,9.999868329707);
#35 = AXIS2_PLACEMENT_3D('',#36,#37,#38);
#36 = CARTESIAN_POINT('',(190.0513158764,-9.999736661148,16.8));
#37 = DIRECTION('',(-5.131655209078E-03,0.999986832971,0.));
#38 = DIRECTION('',(0.,0.,-1.));
#39 = ORIENTED_EDGE('',*,*,#40,.F.);
#40 = EDGE_CURVE('',#41,#32,#43,.T.);
#41 = VERTEX_POINT('',#42);
#42 = CARTESIAN_POINT('',(183.41795514234,-10.03377722952,6.));
#43 = LINE('',#44,#45);
#44 = CARTESIAN_POINT('',(156.32683546207,-10.17280134548,6.));
#45 = VECTOR('',#46,1.);
#46 = DIRECTION('',(0.999986832971,5.131655209078E-03,0.));
#47 = ORIENTED_EDGE('',*,*,#48,.T.);
#48 = EDGE_CURVE('',#41,#49,#51,.T.);
#49 = VERTEX_POINT('',#50);
#50 = CARTESIAN_POINT('',(181.42857142857,-10.04398619524,6.));
#51 = LINE('',#52,#53);
#52 = CARTESIAN_POINT('',(190.,-10.,6.));
#53 = VECTOR('',#54,1.);
#54 = DIRECTION('',(-0.999986832971,-5.131655209078E-03,0.));
#55 = ORIENTED_EDGE('',*,*,#56,.F.);
#56 = EDGE_CURVE('',#57,#49,#59,.T.);
#57 = VERTEX_POINT('',#58);
#58 = CARTESIAN_POINT('',(181.42857142857,-10.04398619524,0.));
#59 = LINE('',#60,#61);
#60 = CARTESIAN_POINT('',(181.42857142857,-10.04398619524,0.));
#61 = VECTOR('',#62,1.);
#62 = DIRECTION('',(0.,0.,1.));
#63 = ORIENTED_EDGE('',*,*,#64,.F.);
#64 = EDGE_CURVE('',#22,#57,#65,.T.);
#65 = LINE('',#66,#67);
#66 = CARTESIAN_POINT('',(190.,-10.,0.));
#67 = VECTOR('',#68,1.);
#68 = DIRECTION('',(-0.999986832971,-5.131655209078E-03,0.));
#69 = PLANE('',#70);
#70 = AXIS2_PLACEMENT_3D('',#71,#72,#73);
#71 = CARTESIAN_POINT('',(190.,-10.,0.));
#72 = DIRECTION('',(5.131655209078E-03,-0.999986832971,0.));
#73 = DIRECTION('',(-0.999986832971,-5.131655209078E-03,0.));
#74 = ADVANCED_FACE('',(#75),#120,.T.);
#75 = FACE_BOUND('',#76,.T.);
#76 = EDGE_LOOP('',(#77,#87,#96,#103,#104,#113));
#77 = ORIENTED_EDGE('',*,*,#78,.T.);
#78 = EDGE_CURVE('',#79,#81,#83,.T.);
#79 = VERTEX_POINT('',#80);
#80 = CARTESIAN_POINT('',(183.41795514234,10.033777229526,0.));
#81 = VERTEX_POINT('',#82);
#82 = CARTESIAN_POINT('',(183.41795514234,10.033777229526,4.8));
#83 = LINE('',#84,#85);
#84 = CARTESIAN_POINT('',(183.41795514234,10.033777229526,0.));
#85 = VECTOR('',#86,1.);
#86 = DIRECTION('',(0.,0.,1.));
#87 = ORIENTED_EDGE('',*,*,#88,.F.);
#88 = EDGE_CURVE('',#89,#81,#91,.T.);
#89 = VERTEX_POINT('',#90);
#90 = CARTESIAN_POINT('',(202.,-1.24344978758E-14,4.8));
#91 = CIRCLE('',#92,12.);
#92 = AXIS2_PLACEMENT_3D('',#93,#94,#95);
#93 = CARTESIAN_POINT('',(190.,0.,4.8));
#94 = DIRECTION('',(0.,0.,1.));
#95 = DIRECTION('',(1.,0.,0.));
#96 = ORIENTED_EDGE('',*,*,#97,.F.);
#97 = EDGE_CURVE('',#24,#89,#98,.T.);
#98 = CIRCLE('',#99,12.);
#99 = AXIS2_PLACEMENT_3D('',#100,#101,#102);
#100 = CARTESIAN_POINT('',(190.,0.,4.8));
#101 = DIRECTION('',(0.,0.,1.));
#102 = DIRECTION('',(-0.548503738138,-0.83614810246,0.));
#103 = ORIENTED_EDGE('',*,*,#21,.F.);
#104 = ORIENTED_EDGE('',*,*,#105,.T.);
#105 = EDGE_CURVE('',#22,#106,#108,.T.);
#106 = VERTEX_POINT('',#107);
#107 = CARTESIAN_POINT('',(202.,-2.939152317954E-15,0.));
#108 = CIRCLE('',#109,12.);
#109 = AXIS2_PLACEMENT_3D('',#110,#111,#112);
#110 = CARTESIAN_POINT('',(190.,0.,0.));
#111 = DIRECTION('',(0.,0.,1.));
#112 = DIRECTION('',(1.,0.,0.));
#113 = ORIENTED_EDGE('',*,*,#114,.T.);
#114 = EDGE_CURVE('',#106,#79,#115,.T.);
#115 = CIRCLE('',#116,12.);
#116 = AXIS2_PLACEMENT_3D('',#117,#118,#119);
#117 = CARTESIAN_POINT('',(190.,0.,0.));
#118 = DIRECTION('',(0.,0.,1.));
#119 = DIRECTION('',(1.,0.,0.));
#120 = CYLINDRICAL_SURFACE('',#121,12.);
#121 = AXIS2_PLACEMENT_3D('',#122,#123,#124);
#122 = CARTESIAN_POINT('',(190.,0.,0.));
#123 = DIRECTION('',(0.,0.,1.));
#124 = DIRECTION('',(1.,0.,0.));
#125 = ADVANCED_FACE('',(#126),#145,.T.);
#126 = FACE_BOUND('',#127,.F.);
#127 = EDGE_LOOP('',(#128,#129,#138,#144));
#128 = ORIENTED_EDGE('',*,*,#31,.F.);
#129 = ORIENTED_EDGE('',*,*,#130,.T.);
#130 = EDGE_CURVE('',#32,#131,#133,.T.);
#131 = VERTEX_POINT('',#132);
#132 = CARTESIAN_POINT('',(200.8,-1.15463194561E-14,6.));
#133 = CIRCLE('',#134,10.8);
#134 = AXIS2_PLACEMENT_3D('',#135,#136,#137);
#135 = CARTESIAN_POINT('',(190.,0.,6.));
#136 = DIRECTION('',(0.,0.,1.));
#137 = DIRECTION('',(-0.548503738138,-0.83614810246,0.));
#138 = ORIENTED_EDGE('',*,*,#139,.T.);
#139 = EDGE_CURVE('',#131,#89,#140,.T.);
#140 = LINE('',#141,#142);
#141 = CARTESIAN_POINT('',(202.,-1.24344978758E-14,4.8));
#142 = VECTOR('',#143,1.);
#143 = DIRECTION('',(0.707106781187,-7.216449660064E-16,-0.707106781187)
  );
#144 = ORIENTED_EDGE('',*,*,#97,.F.);
#145 = CONICAL_SURFACE('',#146,12.,0.785398163397);
#146 = AXIS2_PLACEMENT_3D('',#147,#148,#149);
#147 = CARTESIAN_POINT('',(190.,0.,4.8));
#148 = DIRECTION('',(-0.,-0.,-1.));
#149 = DIRECTION('',(-0.548503738138,-0.83614810246,0.));
#150 = ADVANCED_FACE('',(#151,#410,#421,#432,#443,#454,#465,#476,#487,
    #498),#509,.T.);
#151 = FACE_BOUND('',#152,.T.);
#152 = EDGE_LOOP('',(#153,#163,#171,#179,#187,#195,#203,#211,#219,#227,
    #235,#243,#251,#259,#267,#275,#281,#282,#283,#284,#292,#300,#308,
    #316,#324,#332,#340,#348,#356,#364,#372,#380,#388,#396,#404));
#153 = ORIENTED_EDGE('',*,*,#154,.F.);
#154 = EDGE_CURVE('',#155,#157,#159,.T.);
#155 = VERTEX_POINT('',#156);
#156 = CARTESIAN_POINT('',(70.,9.,0.));
#157 = VERTEX_POINT('',#158);
#158 = CARTESIAN_POINT('',(48.,9.,0.));
#159 = LINE('',#160,#161);
#160 = CARTESIAN_POINT('',(70.5,9.,0.));
#161 = VECTOR('',#162,1.);
#162 = DIRECTION('',(-1.,0.,0.));
#163 = ORIENTED_EDGE('',*,*,#164,.T.);
#164 = EDGE_CURVE('',#155,#165,#167,.T.);
#165 = VERTEX_POINT('',#166);
#166 = CARTESIAN_POINT('',(70.,13.,0.));
#167 = LINE('',#168,#169);
#168 = CARTESIAN_POINT('',(70.,-13.,0.));
#169 = VECTOR('',#170,1.);
#170 = DIRECTION('',(0.,1.,0.));
#171 = ORIENTED_EDGE('',*,*,#172,.T.);
#172 = EDGE_CURVE('',#165,#173,#175,.T.);
#173 = VERTEX_POINT('',#174);
#174 = CARTESIAN_POINT('',(78.571428571429,12.664561578552,0.));
#175 = LINE('',#176,#177);
#176 = CARTESIAN_POINT('',(70.,13.,0.));
#177 = VECTOR('',#178,1.);
#178 = DIRECTION('',(0.999235124587,-3.910454949879E-02,0.));
#179 = ORIENTED_EDGE('',*,*,#180,.T.);
#180 = EDGE_CURVE('',#173,#181,#183,.T.);
#181 = VERTEX_POINT('',#182);
#182 = CARTESIAN_POINT('',(87.142857142857,12.344263314503,0.));
#183 = LINE('',#184,#185);
#184 = CARTESIAN_POINT('',(78.571428571429,12.664561578552,0.));
#185 = VECTOR('',#186,1.);
#186 = DIRECTION('',(0.999302541751,-3.734206809463E-02,0.));
#187 = ORIENTED_EDGE('',*,*,#188,.T.);
#188 = EDGE_CURVE('',#181,#189,#191,.T.);
#189 = VERTEX_POINT('',#190);
#190 = CARTESIAN_POINT('',(95.714285714286,12.039598546912,0.));
#191 = LINE('',#192,#193);
#192 = CARTESIAN_POINT('',(87.142857142857,12.344263314503,0.));
#193 = VECTOR('',#194,1.);
#194 = DIRECTION('',(0.99936890204,-3.552179099903E-02,0.));
#195 = ORIENTED_EDGE('',*,*,#196,.T.);
#196 = EDGE_CURVE('',#189,#197,#199,.T.);
#197 = VERTEX_POINT('',#198);
#198 = CARTESIAN_POINT('',(104.28571428571,11.751121973253,0.));
#199 = LINE('',#200,#201);
#200 = CARTESIAN_POINT('',(95.714285714286,12.039598546912,0.));
#201 = VECTOR('',#202,1.);
#202 = DIRECTION('',(0.99943413096,-3.363655559804E-02,0.));
#203 = ORIENTED_EDGE('',*,*,#204,.T.);
#204 = EDGE_CURVE('',#197,#205,#207,.T.);
#205 = VERTEX_POINT('',#206);
#206 = CARTESIAN_POINT('',(112.85714285714,11.479464036993,0.));
#207 = LINE('',#208,#209);
#208 = CARTESIAN_POINT('',(104.28571428571,11.751121973253,0.));
#209 = VECTOR('',#210,1.);
#210 = DIRECTION('',(0.999498141423,-3.167752027941E-02,0.));
#211 = ORIENTED_EDGE('',*,*,#212,.T.);
#212 = EDGE_CURVE('',#205,#213,#215,.T.);
#213 = VERTEX_POINT('',#214);
#214 = CARTESIAN_POINT('',(121.42857142857,11.225350625538,0.));
#215 = LINE('',#216,#217);
#216 = CARTESIAN_POINT('',(112.85714285714,11.479464036993,0.));
#217 = VECTOR('',#218,1.);
#218 = DIRECTION('',(0.999560830076,-2.963354479017E-02,0.));
#219 = ORIENTED_EDGE('',*,*,#220,.T.);
#220 = EDGE_CURVE('',#213,#221,#223,.T.);
#221 = VERTEX_POINT('',#222);
#222 = CARTESIAN_POINT('',(130.,10.98963093308,0.));
#223 = LINE('',#224,#225);
#224 = CARTESIAN_POINT('',(121.42857142857,11.225350625538,0.));
#225 = VECTOR('',#226,1.);
#226 = DIRECTION('',(0.999622072006,-2.749023752861E-02,0.));
#227 = ORIENTED_EDGE('',*,*,#228,.T.);
#228 = EDGE_CURVE('',#221,#229,#231,.T.);
#229 = VERTEX_POINT('',#230);
#230 = CARTESIAN_POINT('',(138.57142857142,10.773318497105,0.));
#231 = LINE('',#232,#233);
#232 = CARTESIAN_POINT('',(130.,10.98963093308,0.));
#233 = VECTOR('',#234,1.);
#234 = DIRECTION('',(0.999681712799,-2.522841842434E-02,0.));
#235 = ORIENTED_EDGE('',*,*,#236,.T.);
#236 = EDGE_CURVE('',#229,#237,#239,.T.);
#237 = VERTEX_POINT('',#238);
#238 = CARTESIAN_POINT('',(147.14285714285,10.577654824109,0.));
#239 = LINE('',#240,#241);
#240 = CARTESIAN_POINT('',(138.57142857142,10.773318497105,0.));
#241 = VECTOR('',#242,1.);
#242 = DIRECTION('',(0.999739556036,-2.282148325027E-02,0.));
#243 = ORIENTED_EDGE('',*,*,#244,.T.);
#244 = EDGE_CURVE('',#237,#245,#247,.T.);
#245 = VERTEX_POINT('',#246);
#246 = CARTESIAN_POINT('',(155.71428571428,10.404214960967,0.));
#247 = LINE('',#248,#249);
#248 = CARTESIAN_POINT('',(147.14285714285,10.577654824109,0.));
#249 = VECTOR('',#250,1.);
#250 = DIRECTION('',(0.9997953423,-2.023050952281E-02,0.));
#251 = ORIENTED_EDGE('',*,*,#252,.T.);
#252 = EDGE_CURVE('',#245,#253,#255,.T.);
#253 = VERTEX_POINT('',#254);
#254 = CARTESIAN_POINT('',(164.28571428571,10.255099968619,0.));
#255 = LINE('',#256,#257);
#256 = CARTESIAN_POINT('',(155.71428571428,10.404214960967,0.));
#257 = VECTOR('',#258,1.);
#258 = DIRECTION('',(0.9998487109,-1.739411716871E-02,0.));
#259 = ORIENTED_EDGE('',*,*,#260,.T.);
#260 = EDGE_CURVE('',#253,#261,#263,.T.);
#261 = VERTEX_POINT('',#262);
#262 = CARTESIAN_POINT('',(172.85714285714,10.133341209662,0.));
#263 = LINE('',#264,#265);
#264 = CARTESIAN_POINT('',(164.28571428571,10.255099968619,0.));
#265 = VECTOR('',#266,1.);
#266 = DIRECTION('',(0.999899121576,-1.420375554797E-02,0.));
#267 = ORIENTED_EDGE('',*,*,#268,.T.);
#268 = EDGE_CURVE('',#261,#269,#271,.T.);
#269 = VERTEX_POINT('',#270);
#270 = CARTESIAN_POINT('',(181.42857142857,10.043986195245,0.));
#271 = LINE('',#272,#273);
#272 = CARTESIAN_POINT('',(172.85714285714,10.133341209662,0.));
#273 = VECTOR('',#274,1.);
#274 = DIRECTION('',(0.999945666705,-1.042418527086E-02,0.));
#275 = ORIENTED_EDGE('',*,*,#276,.T.);
#276 = EDGE_CURVE('',#269,#79,#277,.T.);
#277 = LINE('',#278,#279);
#278 = CARTESIAN_POINT('',(181.42857142857,10.043986195245,0.));
#279 = VECTOR('',#280,1.);
#280 = DIRECTION('',(0.999986832971,-5.131655209078E-03,0.));
#281 = ORIENTED_EDGE('',*,*,#114,.F.);
#282 = ORIENTED_EDGE('',*,*,#105,.F.);
#283 = ORIENTED_EDGE('',*,*,#64,.T.);
#284 = ORIENTED_EDGE('',*,*,#285,.T.);
#285 = EDGE_CURVE('',#57,#286,#288,.T.);
#286 = VERTEX_POINT('',#287);
#287 = CARTESIAN_POINT('',(172.85714285714,-10.13334120966,0.));
#288 = LINE('',#289,#290);
#289 = CARTESIAN_POINT('',(181.42857142857,-10.04398619524,0.));
#290 = VECTOR('',#291,1.);
#291 = DIRECTION('',(-0.999945666705,-1.042418527086E-02,0.));
#292 = ORIENTED_EDGE('',*,*,#293,.T.);
#293 = EDGE_CURVE('',#286,#294,#296,.T.);
#294 = VERTEX_POINT('',#295);
#295 = CARTESIAN_POINT('',(164.28571428571,-10.25509996861,0.));
#296 = LINE('',#297,#298);
#297 = CARTESIAN_POINT('',(172.85714285714,-10.13334120966,0.));
#298 = VECTOR('',#299,1.);
#299 = DIRECTION('',(-0.999899121576,-1.420375554797E-02,0.));
#300 = ORIENTED_EDGE('',*,*,#301,.T.);
#301 = EDGE_CURVE('',#294,#302,#304,.T.);
#302 = VERTEX_POINT('',#303);
#303 = CARTESIAN_POINT('',(155.71428571428,-10.40421496096,0.));
#304 = LINE('',#305,#306);
#305 = CARTESIAN_POINT('',(164.28571428571,-10.25509996861,0.));
#306 = VECTOR('',#307,1.);
#307 = DIRECTION('',(-0.9998487109,-1.739411716871E-02,0.));
#308 = ORIENTED_EDGE('',*,*,#309,.T.);
#309 = EDGE_CURVE('',#302,#310,#312,.T.);
#310 = VERTEX_POINT('',#311);
#311 = CARTESIAN_POINT('',(147.14285714285,-10.5776548241,0.));
#312 = LINE('',#313,#314);
#313 = CARTESIAN_POINT('',(155.71428571428,-10.40421496096,0.));
#314 = VECTOR('',#315,1.);
#315 = DIRECTION('',(-0.9997953423,-2.023050952281E-02,0.));
#316 = ORIENTED_EDGE('',*,*,#317,.T.);
#317 = EDGE_CURVE('',#310,#318,#320,.T.);
#318 = VERTEX_POINT('',#319);
#319 = CARTESIAN_POINT('',(138.57142857142,-10.7733184971,0.));
#320 = LINE('',#321,#322);
#321 = CARTESIAN_POINT('',(147.14285714285,-10.5776548241,0.));
#322 = VECTOR('',#323,1.);
#323 = DIRECTION('',(-0.999739556036,-2.282148325027E-02,0.));
#324 = ORIENTED_EDGE('',*,*,#325,.T.);
#325 = EDGE_CURVE('',#318,#326,#328,.T.);
#326 = VERTEX_POINT('',#327);
#327 = CARTESIAN_POINT('',(130.,-10.98963093308,0.));
#328 = LINE('',#329,#330);
#329 = CARTESIAN_POINT('',(138.57142857142,-10.7733184971,0.));
#330 = VECTOR('',#331,1.);
#331 = DIRECTION('',(-0.999681712799,-2.522841842434E-02,0.));
#332 = ORIENTED_EDGE('',*,*,#333,.T.);
#333 = EDGE_CURVE('',#326,#334,#336,.T.);
#334 = VERTEX_POINT('',#335);
#335 = CARTESIAN_POINT('',(121.42857142857,-11.22535062553,0.));
#336 = LINE('',#337,#338);
#337 = CARTESIAN_POINT('',(130.,-10.98963093308,0.));
#338 = VECTOR('',#339,1.);
#339 = DIRECTION('',(-0.999622072006,-2.749023752861E-02,0.));
#340 = ORIENTED_EDGE('',*,*,#341,.T.);
#341 = EDGE_CURVE('',#334,#342,#344,.T.);
#342 = VERTEX_POINT('',#343);
#343 = CARTESIAN_POINT('',(112.85714285714,-11.47946403699,0.));
#344 = LINE('',#345,#346);
#345 = CARTESIAN_POINT('',(121.42857142857,-11.22535062553,0.));
#346 = VECTOR('',#347,1.);
#347 = DIRECTION('',(-0.999560830076,-2.963354479017E-02,0.));
#348 = ORIENTED_EDGE('',*,*,#349,.T.);
#349 = EDGE_CURVE('',#342,#350,#352,.T.);
#350 = VERTEX_POINT('',#351);
#351 = CARTESIAN_POINT('',(104.28571428571,-11.75112197325,0.));
#352 = LINE('',#353,#354);
#353 = CARTESIAN_POINT('',(112.85714285714,-11.47946403699,0.));
#354 = VECTOR('',#355,1.);
#355 = DIRECTION('',(-0.999498141423,-3.167752027941E-02,0.));
#356 = ORIENTED_EDGE('',*,*,#357,.T.);
#357 = EDGE_CURVE('',#350,#358,#360,.T.);
#358 = VERTEX_POINT('',#359);
#359 = CARTESIAN_POINT('',(95.714285714286,-12.03959854691,0.));
#360 = LINE('',#361,#362);
#361 = CARTESIAN_POINT('',(104.28571428571,-11.75112197325,0.));
#362 = VECTOR('',#363,1.);
#363 = DIRECTION('',(-0.99943413096,-3.363655559804E-02,0.));
#364 = ORIENTED_EDGE('',*,*,#365,.T.);
#365 = EDGE_CURVE('',#358,#366,#368,.T.);
#366 = VERTEX_POINT('',#367);
#367 = CARTESIAN_POINT('',(87.142857142857,-12.3442633145,0.));
#368 = LINE('',#369,#370);
#369 = CARTESIAN_POINT('',(95.714285714286,-12.03959854691,0.));
#370 = VECTOR('',#371,1.);
#371 = DIRECTION('',(-0.99936890204,-3.552179099903E-02,0.));
#372 = ORIENTED_EDGE('',*,*,#373,.T.);
#373 = EDGE_CURVE('',#366,#374,#376,.T.);
#374 = VERTEX_POINT('',#375);
#375 = CARTESIAN_POINT('',(78.571428571429,-12.66456157855,0.));
#376 = LINE('',#377,#378);
#377 = CARTESIAN_POINT('',(87.142857142857,-12.3442633145,0.));
#378 = VECTOR('',#379,1.);
#379 = DIRECTION('',(-0.999302541751,-3.734206809463E-02,0.));
#380 = ORIENTED_EDGE('',*,*,#381,.T.);
#381 = EDGE_CURVE('',#374,#382,#384,.T.);
#382 = VERTEX_POINT('',#383);
#383 = CARTESIAN_POINT('',(70.,-13.,0.));
#384 = LINE('',#385,#386);
#385 = CARTESIAN_POINT('',(78.571428571429,-12.66456157855,0.));
#386 = VECTOR('',#387,1.);
#387 = DIRECTION('',(-0.999235124587,-3.910454949879E-02,0.));
#388 = ORIENTED_EDGE('',*,*,#389,.T.);
#389 = EDGE_CURVE('',#382,#390,#392,.T.);
#390 = VERTEX_POINT('',#391);
#391 = CARTESIAN_POINT('',(70.,-9.,0.));
#392 = LINE('',#393,#394);
#393 = CARTESIAN_POINT('',(70.,-13.,0.));
#394 = VECTOR('',#395,1.);
#395 = DIRECTION('',(0.,1.,0.));
#396 = ORIENTED_EDGE('',*,*,#397,.F.);
#397 = EDGE_CURVE('',#398,#390,#400,.T.);
#398 = VERTEX_POINT('',#399);
#399 = CARTESIAN_POINT('',(48.,-9.,0.));
#400 = LINE('',#401,#402);
#401 = CARTESIAN_POINT('',(48.,-9.,0.));
#402 = VECTOR('',#403,1.);
#403 = DIRECTION('',(1.,0.,0.));
#404 = ORIENTED_EDGE('',*,*,#405,.F.);
#405 = EDGE_CURVE('',#157,#398,#406,.T.);
#406 = LINE('',#407,#408);
#407 = CARTESIAN_POINT('',(48.,9.,0.));
#408 = VECTOR('',#409,1.);
#409 = DIRECTION('',(0.,-1.,0.));
#410 = FACE_BOUND('',#411,.T.);
#411 = EDGE_LOOP('',(#412));
#412 = ORIENTED_EDGE('',*,*,#413,.T.);
#413 = EDGE_CURVE('',#414,#414,#416,.T.);
#414 = VERTEX_POINT('',#415);
#415 = CARTESIAN_POINT('',(197.1,-6.,0.));
#416 = CIRCLE('',#417,1.1);
#417 = AXIS2_PLACEMENT_3D('',#418,#419,#420);
#418 = CARTESIAN_POINT('',(196.,-6.,0.));
#419 = DIRECTION('',(0.,0.,1.));
#420 = DIRECTION('',(1.,0.,0.));
#421 = FACE_BOUND('',#422,.T.);
#422 = EDGE_LOOP('',(#423));
#423 = ORIENTED_EDGE('',*,*,#424,.T.);
#424 = EDGE_CURVE('',#425,#425,#427,.T.);
#425 = VERTEX_POINT('',#426);
#426 = CARTESIAN_POINT('',(185.1,-6.,0.));
#427 = CIRCLE('',#428,1.1);
#428 = AXIS2_PLACEMENT_3D('',#429,#430,#431);
#429 = CARTESIAN_POINT('',(184.,-6.,0.));
#430 = DIRECTION('',(0.,0.,1.));
#431 = DIRECTION('',(1.,0.,0.));
#432 = FACE_BOUND('',#433,.T.);
#433 = EDGE_LOOP('',(#434));
#434 = ORIENTED_EDGE('',*,*,#435,.T.);
#435 = EDGE_CURVE('',#436,#436,#438,.T.);
#436 = VERTEX_POINT('',#437);
#437 = CARTESIAN_POINT('',(193.,-7.347880794884E-16,0.));
#438 = CIRCLE('',#439,3.);
#439 = AXIS2_PLACEMENT_3D('',#440,#441,#442);
#440 = CARTESIAN_POINT('',(190.,0.,0.));
#441 = DIRECTION('',(0.,0.,1.));
#442 = DIRECTION('',(1.,0.,0.));
#443 = FACE_BOUND('',#444,.T.);
#444 = EDGE_LOOP('',(#445));
#445 = ORIENTED_EDGE('',*,*,#446,.T.);
#446 = EDGE_CURVE('',#447,#447,#449,.T.);
#447 = VERTEX_POINT('',#448);
#448 = CARTESIAN_POINT('',(161.75,-2.694222958124E-16,0.));
#449 = CIRCLE('',#450,1.1);
#450 = AXIS2_PLACEMENT_3D('',#451,#452,#453);
#451 = CARTESIAN_POINT('',(160.65,0.,0.));
#452 = DIRECTION('',(0.,0.,1.));
#453 = DIRECTION('',(1.,0.,0.));
#454 = FACE_BOUND('',#455,.T.);
#455 = EDGE_LOOP('',(#456));
#456 = ORIENTED_EDGE('',*,*,#457,.T.);
#457 = EDGE_CURVE('',#458,#458,#460,.T.);
#458 = VERTEX_POINT('',#459);
#459 = CARTESIAN_POINT('',(129.25,-2.694222958124E-16,0.));
#460 = CIRCLE('',#461,1.1);
#461 = AXIS2_PLACEMENT_3D('',#462,#463,#464);
#462 = CARTESIAN_POINT('',(128.15,0.,0.));
#463 = DIRECTION('',(0.,0.,1.));
#464 = DIRECTION('',(1.,0.,0.));
#465 = FACE_BOUND('',#466,.T.);
#466 = EDGE_LOOP('',(#467));
#467 = ORIENTED_EDGE('',*,*,#468,.T.);
#468 = EDGE_CURVE('',#469,#469,#471,.T.);
#469 = VERTEX_POINT('',#470);
#470 = CARTESIAN_POINT('',(63.6,-3.918869757272E-16,0.));
#471 = CIRCLE('',#472,1.6);
#472 = AXIS2_PLACEMENT_3D('',#473,#474,#475);
#473 = CARTESIAN_POINT('',(62.,0.,0.));
#474 = DIRECTION('',(0.,0.,1.));
#475 = DIRECTION('',(1.,0.,0.));
#476 = FACE_BOUND('',#477,.T.);
#477 = EDGE_LOOP('',(#478));
#478 = ORIENTED_EDGE('',*,*,#479,.T.);
#479 = EDGE_CURVE('',#480,#480,#482,.T.);
#480 = VERTEX_POINT('',#481);
#481 = CARTESIAN_POINT('',(53.6,-3.918869757272E-16,0.));
#482 = CIRCLE('',#483,1.6);
#483 = AXIS2_PLACEMENT_3D('',#484,#485,#486);
#484 = CARTESIAN_POINT('',(52.,0.,0.));
#485 = DIRECTION('',(0.,0.,1.));
#486 = DIRECTION('',(1.,0.,0.));
#487 = FACE_BOUND('',#488,.T.);
#488 = EDGE_LOOP('',(#489));
#489 = ORIENTED_EDGE('',*,*,#490,.T.);
#490 = EDGE_CURVE('',#491,#491,#493,.T.);
#491 = VERTEX_POINT('',#492);
#492 = CARTESIAN_POINT('',(197.1,6.,0.));
#493 = CIRCLE('',#494,1.1);
#494 = AXIS2_PLACEMENT_3D('',#495,#496,#497);
#495 = CARTESIAN_POINT('',(196.,6.,0.));
#496 = DIRECTION('',(0.,0.,1.));
#497 = DIRECTION('',(1.,0.,0.));
#498 = FACE_BOUND('',#499,.T.);
#499 = EDGE_LOOP('',(#500));
#500 = ORIENTED_EDGE('',*,*,#501,.T.);
#501 = EDGE_CURVE('',#502,#502,#504,.T.);
#502 = VERTEX_POINT('',#503);
#503 = CARTESIAN_POINT('',(185.1,6.,0.));
#504 = CIRCLE('',#505,1.1);
#505 = AXIS2_PLACEMENT_3D('',#506,#507,#508);
#506 = CARTESIAN_POINT('',(184.,6.,0.));
#507 = DIRECTION('',(0.,0.,1.));
#508 = DIRECTION('',(1.,0.,0.));
#509 = PLANE('',#510);
#510 = AXIS2_PLACEMENT_3D('',#511,#512,#513);
#511 = CARTESIAN_POINT('',(122.60058015915,-6.543946796216E-16,0.));
#512 = DIRECTION('',(-0.,-0.,-1.));
#513 = DIRECTION('',(-1.,0.,0.));
#514 = ADVANCED_FACE('',(#515,#791,#802,#813,#824,#835,#869,#903,#914,
    #925),#936,.T.);
#515 = FACE_BOUND('',#516,.T.);
#516 = EDGE_LOOP('',(#517,#518,#519,#528,#536,#544,#552,#560,#568,#576,
    #584,#592,#600,#608,#616,#624,#632,#640,#648,#656,#664,#672,#680,
    #688,#696,#704,#712,#720,#728,#736,#744,#752,#760,#768,#776,#784,
    #790));
#517 = ORIENTED_EDGE('',*,*,#40,.T.);
#518 = ORIENTED_EDGE('',*,*,#130,.T.);
#519 = ORIENTED_EDGE('',*,*,#520,.T.);
#520 = EDGE_CURVE('',#131,#521,#523,.T.);
#521 = VERTEX_POINT('',#522);
#522 = CARTESIAN_POINT('',(185.97183121246,10.020671445523,6.));
#523 = CIRCLE('',#524,10.8);
#524 = AXIS2_PLACEMENT_3D('',#525,#526,#527);
#525 = CARTESIAN_POINT('',(190.,0.,6.));
#526 = DIRECTION('',(0.,0.,1.));
#527 = DIRECTION('',(1.,0.,0.));
#528 = ORIENTED_EDGE('',*,*,#529,.F.);
#529 = EDGE_CURVE('',#530,#521,#532,.T.);
#530 = VERTEX_POINT('',#531);
#531 = CARTESIAN_POINT('',(183.41795514234,10.033777229526,6.));
#532 = LINE('',#533,#534);
#533 = CARTESIAN_POINT('',(152.04112117635,10.19479444311,6.));
#534 = VECTOR('',#535,1.);
#535 = DIRECTION('',(0.999986832971,-5.131655209078E-03,0.));
#536 = ORIENTED_EDGE('',*,*,#537,.F.);
#537 = EDGE_CURVE('',#538,#530,#540,.T.);
#538 = VERTEX_POINT('',#539);
#539 = CARTESIAN_POINT('',(181.42857142857,10.043986195245,6.));
#540 = LINE('',#541,#542);
#541 = CARTESIAN_POINT('',(181.42857142857,10.043986195245,6.));
#542 = VECTOR('',#543,1.);
#543 = DIRECTION('',(0.999986832971,-5.131655209078E-03,0.));
#544 = ORIENTED_EDGE('',*,*,#545,.F.);
#545 = EDGE_CURVE('',#546,#538,#548,.T.);
#546 = VERTEX_POINT('',#547);
#547 = CARTESIAN_POINT('',(172.85714285714,10.133341209662,6.));
#548 = LINE('',#549,#550);
#549 = CARTESIAN_POINT('',(172.85714285714,10.133341209662,6.));
#550 = VECTOR('',#551,1.);
#551 = DIRECTION('',(0.999945666705,-1.042418527086E-02,0.));
#552 = ORIENTED_EDGE('',*,*,#553,.F.);
#553 = EDGE_CURVE('',#554,#546,#556,.T.);
#554 = VERTEX_POINT('',#555);
#555 = CARTESIAN_POINT('',(164.28571428571,10.255099968619,6.));
#556 = LINE('',#557,#558);
#557 = CARTESIAN_POINT('',(164.28571428571,10.255099968619,6.));
#558 = VECTOR('',#559,1.);
#559 = DIRECTION('',(0.999899121576,-1.420375554797E-02,0.));
#560 = ORIENTED_EDGE('',*,*,#561,.F.);
#561 = EDGE_CURVE('',#562,#554,#564,.T.);
#562 = VERTEX_POINT('',#563);
#563 = CARTESIAN_POINT('',(155.71428571428,10.404214960967,6.));
#564 = LINE('',#565,#566);
#565 = CARTESIAN_POINT('',(155.71428571428,10.404214960967,6.));
#566 = VECTOR('',#567,1.);
#567 = DIRECTION('',(0.9998487109,-1.739411716871E-02,0.));
#568 = ORIENTED_EDGE('',*,*,#569,.F.);
#569 = EDGE_CURVE('',#570,#562,#572,.T.);
#570 = VERTEX_POINT('',#571);
#571 = CARTESIAN_POINT('',(147.14285714285,10.577654824109,6.));
#572 = LINE('',#573,#574);
#573 = CARTESIAN_POINT('',(147.14285714285,10.577654824109,6.));
#574 = VECTOR('',#575,1.);
#575 = DIRECTION('',(0.9997953423,-2.023050952281E-02,0.));
#576 = ORIENTED_EDGE('',*,*,#577,.F.);
#577 = EDGE_CURVE('',#578,#570,#580,.T.);
#578 = VERTEX_POINT('',#579);
#579 = CARTESIAN_POINT('',(138.57142857142,10.773318497105,6.));
#580 = LINE('',#581,#582);
#581 = CARTESIAN_POINT('',(138.57142857142,10.773318497105,6.));
#582 = VECTOR('',#583,1.);
#583 = DIRECTION('',(0.999739556036,-2.282148325027E-02,0.));
#584 = ORIENTED_EDGE('',*,*,#585,.F.);
#585 = EDGE_CURVE('',#586,#578,#588,.T.);
#586 = VERTEX_POINT('',#587);
#587 = CARTESIAN_POINT('',(130.,10.98963093308,6.));
#588 = LINE('',#589,#590);
#589 = CARTESIAN_POINT('',(130.,10.98963093308,6.));
#590 = VECTOR('',#591,1.);
#591 = DIRECTION('',(0.999681712799,-2.522841842434E-02,0.));
#592 = ORIENTED_EDGE('',*,*,#593,.F.);
#593 = EDGE_CURVE('',#594,#586,#596,.T.);
#594 = VERTEX_POINT('',#595);
#595 = CARTESIAN_POINT('',(121.42857142857,11.225350625538,6.));
#596 = LINE('',#597,#598);
#597 = CARTESIAN_POINT('',(121.42857142857,11.225350625538,6.));
#598 = VECTOR('',#599,1.);
#599 = DIRECTION('',(0.999622072006,-2.749023752861E-02,0.));
#600 = ORIENTED_EDGE('',*,*,#601,.F.);
#601 = EDGE_CURVE('',#602,#594,#604,.T.);
#602 = VERTEX_POINT('',#603);
#603 = CARTESIAN_POINT('',(112.85714285714,11.479464036993,6.));
#604 = LINE('',#605,#606);
#605 = CARTESIAN_POINT('',(112.85714285714,11.479464036993,6.));
#606 = VECTOR('',#607,1.);
#607 = DIRECTION('',(0.999560830076,-2.963354479017E-02,0.));
#608 = ORIENTED_EDGE('',*,*,#609,.F.);
#609 = EDGE_CURVE('',#610,#602,#612,.T.);
#610 = VERTEX_POINT('',#611);
#611 = CARTESIAN_POINT('',(104.28571428571,11.751121973253,6.));
#612 = LINE('',#613,#614);
#613 = CARTESIAN_POINT('',(104.28571428571,11.751121973253,6.));
#614 = VECTOR('',#615,1.);
#615 = DIRECTION('',(0.999498141423,-3.167752027941E-02,0.));
#616 = ORIENTED_EDGE('',*,*,#617,.F.);
#617 = EDGE_CURVE('',#618,#610,#620,.T.);
#618 = VERTEX_POINT('',#619);
#619 = CARTESIAN_POINT('',(95.714285714286,12.039598546912,6.));
#620 = LINE('',#621,#622);
#621 = CARTESIAN_POINT('',(95.714285714286,12.039598546912,6.));
#622 = VECTOR('',#623,1.);
#623 = DIRECTION('',(0.99943413096,-3.363655559804E-02,0.));
#624 = ORIENTED_EDGE('',*,*,#625,.F.);
#625 = EDGE_CURVE('',#626,#618,#628,.T.);
#626 = VERTEX_POINT('',#627);
#627 = CARTESIAN_POINT('',(87.142857142857,12.344263314503,6.));
#628 = LINE('',#629,#630);
#629 = CARTESIAN_POINT('',(87.142857142857,12.344263314503,6.));
#630 = VECTOR('',#631,1.);
#631 = DIRECTION('',(0.99936890204,-3.552179099903E-02,0.));
#632 = ORIENTED_EDGE('',*,*,#633,.F.);
#633 = EDGE_CURVE('',#634,#626,#636,.T.);
#634 = VERTEX_POINT('',#635);
#635 = CARTESIAN_POINT('',(78.571428571429,12.664561578552,6.));
#636 = LINE('',#637,#638);
#637 = CARTESIAN_POINT('',(78.571428571429,12.664561578552,6.));
#638 = VECTOR('',#639,1.);
#639 = DIRECTION('',(0.999302541751,-3.734206809463E-02,0.));
#640 = ORIENTED_EDGE('',*,*,#641,.F.);
#641 = EDGE_CURVE('',#642,#634,#644,.T.);
#642 = VERTEX_POINT('',#643);
#643 = CARTESIAN_POINT('',(70.,13.,6.));
#644 = LINE('',#645,#646);
#645 = CARTESIAN_POINT('',(70.,13.,6.));
#646 = VECTOR('',#647,1.);
#647 = DIRECTION('',(0.999235124587,-3.910454949879E-02,0.));
#648 = ORIENTED_EDGE('',*,*,#649,.F.);
#649 = EDGE_CURVE('',#650,#642,#652,.T.);
#650 = VERTEX_POINT('',#651);
#651 = CARTESIAN_POINT('',(70.,9.,6.));
#652 = LINE('',#653,#654);
#653 = CARTESIAN_POINT('',(70.,-13.,6.));
#654 = VECTOR('',#655,1.);
#655 = DIRECTION('',(0.,1.,0.));
#656 = ORIENTED_EDGE('',*,*,#657,.T.);
#657 = EDGE_CURVE('',#650,#658,#660,.T.);
#658 = VERTEX_POINT('',#659);
#659 = CARTESIAN_POINT('',(48.,9.,6.));
#660 = LINE('',#661,#662);
#661 = CARTESIAN_POINT('',(70.5,9.,6.));
#662 = VECTOR('',#663,1.);
#663 = DIRECTION('',(-1.,0.,0.));
#664 = ORIENTED_EDGE('',*,*,#665,.T.);
#665 = EDGE_CURVE('',#658,#666,#668,.T.);
#666 = VERTEX_POINT('',#667);
#667 = CARTESIAN_POINT('',(48.,-9.,6.));
#668 = LINE('',#669,#670);
#669 = CARTESIAN_POINT('',(48.,9.,6.));
#670 = VECTOR('',#671,1.);
#671 = DIRECTION('',(0.,-1.,0.));
#672 = ORIENTED_EDGE('',*,*,#673,.T.);
#673 = EDGE_CURVE('',#666,#674,#676,.T.);
#674 = VERTEX_POINT('',#675);
#675 = CARTESIAN_POINT('',(70.,-9.,6.));
#676 = LINE('',#677,#678);
#677 = CARTESIAN_POINT('',(48.,-9.,6.));
#678 = VECTOR('',#679,1.);
#679 = DIRECTION('',(1.,0.,0.));
#680 = ORIENTED_EDGE('',*,*,#681,.F.);
#681 = EDGE_CURVE('',#682,#674,#684,.T.);
#682 = VERTEX_POINT('',#683);
#683 = CARTESIAN_POINT('',(70.,-13.,6.));
#684 = LINE('',#685,#686);
#685 = CARTESIAN_POINT('',(70.,-13.,6.));
#686 = VECTOR('',#687,1.);
#687 = DIRECTION('',(0.,1.,0.));
#688 = ORIENTED_EDGE('',*,*,#689,.F.);
#689 = EDGE_CURVE('',#690,#682,#692,.T.);
#690 = VERTEX_POINT('',#691);
#691 = CARTESIAN_POINT('',(78.571428571429,-12.66456157855,6.));
#692 = LINE('',#693,#694);
#693 = CARTESIAN_POINT('',(78.571428571429,-12.66456157855,6.));
#694 = VECTOR('',#695,1.);
#695 = DIRECTION('',(-0.999235124587,-3.910454949879E-02,0.));
#696 = ORIENTED_EDGE('',*,*,#697,.F.);
#697 = EDGE_CURVE('',#698,#690,#700,.T.);
#698 = VERTEX_POINT('',#699);
#699 = CARTESIAN_POINT('',(87.142857142857,-12.3442633145,6.));
#700 = LINE('',#701,#702);
#701 = CARTESIAN_POINT('',(87.142857142857,-12.3442633145,6.));
#702 = VECTOR('',#703,1.);
#703 = DIRECTION('',(-0.999302541751,-3.734206809463E-02,0.));
#704 = ORIENTED_EDGE('',*,*,#705,.F.);
#705 = EDGE_CURVE('',#706,#698,#708,.T.);
#706 = VERTEX_POINT('',#707);
#707 = CARTESIAN_POINT('',(95.714285714286,-12.03959854691,6.));
#708 = LINE('',#709,#710);
#709 = CARTESIAN_POINT('',(95.714285714286,-12.03959854691,6.));
#710 = VECTOR('',#711,1.);
#711 = DIRECTION('',(-0.99936890204,-3.552179099903E-02,0.));
#712 = ORIENTED_EDGE('',*,*,#713,.F.);
#713 = EDGE_CURVE('',#714,#706,#716,.T.);
#714 = VERTEX_POINT('',#715);
#715 = CARTESIAN_POINT('',(104.28571428571,-11.75112197325,6.));
#716 = LINE('',#717,#718);
#717 = CARTESIAN_POINT('',(104.28571428571,-11.75112197325,6.));
#718 = VECTOR('',#719,1.);
#719 = DIRECTION('',(-0.99943413096,-3.363655559804E-02,0.));
#720 = ORIENTED_EDGE('',*,*,#721,.F.);
#721 = EDGE_CURVE('',#722,#714,#724,.T.);
#722 = VERTEX_POINT('',#723);
#723 = CARTESIAN_POINT('',(112.85714285714,-11.47946403699,6.));
#724 = LINE('',#725,#726);
#725 = CARTESIAN_POINT('',(112.85714285714,-11.47946403699,6.));
#726 = VECTOR('',#727,1.);
#727 = DIRECTION('',(-0.999498141423,-3.167752027941E-02,0.));
#728 = ORIENTED_EDGE('',*,*,#729,.F.);
#729 = EDGE_CURVE('',#730,#722,#732,.T.);
#730 = VERTEX_POINT('',#731);
#731 = CARTESIAN_POINT('',(121.42857142857,-11.22535062553,6.));
#732 = LINE('',#733,#734);
#733 = CARTESIAN_POINT('',(121.42857142857,-11.22535062553,6.));
#734 = VECTOR('',#735,1.);
#735 = DIRECTION('',(-0.999560830076,-2.963354479017E-02,0.));
#736 = ORIENTED_EDGE('',*,*,#737,.F.);
#737 = EDGE_CURVE('',#738,#730,#740,.T.);
#738 = VERTEX_POINT('',#739);
#739 = CARTESIAN_POINT('',(130.,-10.98963093308,6.));
#740 = LINE('',#741,#742);
#741 = CARTESIAN_POINT('',(130.,-10.98963093308,6.));
#742 = VECTOR('',#743,1.);
#743 = DIRECTION('',(-0.999622072006,-2.749023752861E-02,0.));
#744 = ORIENTED_EDGE('',*,*,#745,.F.);
#745 = EDGE_CURVE('',#746,#738,#748,.T.);
#746 = VERTEX_POINT('',#747);
#747 = CARTESIAN_POINT('',(138.57142857142,-10.7733184971,6.));
#748 = LINE('',#749,#750);
#749 = CARTESIAN_POINT('',(138.57142857142,-10.7733184971,6.));
#750 = VECTOR('',#751,1.);
#751 = DIRECTION('',(-0.999681712799,-2.522841842434E-02,0.));
#752 = ORIENTED_EDGE('',*,*,#753,.F.);
#753 = EDGE_CURVE('',#754,#746,#756,.T.);
#754 = VERTEX_POINT('',#755);
#755 = CARTESIAN_POINT('',(147.14285714285,-10.5776548241,6.));
#756 = LINE('',#757,#758);
#757 = CARTESIAN_POINT('',(147.14285714285,-10.5776548241,6.));
#758 = VECTOR('',#759,1.);
#759 = DIRECTION('',(-0.999739556036,-2.282148325027E-02,0.));
#760 = ORIENTED_EDGE('',*,*,#761,.F.);
#761 = EDGE_CURVE('',#762,#754,#764,.T.);
#762 = VERTEX_POINT('',#763);
#763 = CARTESIAN_POINT('',(155.71428571428,-10.40421496096,6.));
#764 = LINE('',#765,#766);
#765 = CARTESIAN_POINT('',(155.71428571428,-10.40421496096,6.));
#766 = VECTOR('',#767,1.);
#767 = DIRECTION('',(-0.9997953423,-2.023050952281E-02,0.));
#768 = ORIENTED_EDGE('',*,*,#769,.F.);
#769 = EDGE_CURVE('',#770,#762,#772,.T.);
#770 = VERTEX_POINT('',#771);
#771 = CARTESIAN_POINT('',(164.28571428571,-10.25509996861,6.));
#772 = LINE('',#773,#774);
#773 = CARTESIAN_POINT('',(164.28571428571,-10.25509996861,6.));
#774 = VECTOR('',#775,1.);
#775 = DIRECTION('',(-0.9998487109,-1.739411716871E-02,0.));
#776 = ORIENTED_EDGE('',*,*,#777,.F.);
#777 = EDGE_CURVE('',#778,#770,#780,.T.);
#778 = VERTEX_POINT('',#779);
#779 = CARTESIAN_POINT('',(172.85714285714,-10.13334120966,6.));
#780 = LINE('',#781,#782);
#781 = CARTESIAN_POINT('',(172.85714285714,-10.13334120966,6.));
#782 = VECTOR('',#783,1.);
#783 = DIRECTION('',(-0.999899121576,-1.420375554797E-02,0.));
#784 = ORIENTED_EDGE('',*,*,#785,.F.);
#785 = EDGE_CURVE('',#49,#778,#786,.T.);
#786 = LINE('',#787,#788);
#787 = CARTESIAN_POINT('',(181.42857142857,-10.04398619524,6.));
#788 = VECTOR('',#789,1.);
#789 = DIRECTION('',(-0.999945666705,-1.042418527086E-02,0.));
#790 = ORIENTED_EDGE('',*,*,#48,.F.);
#791 = FACE_BOUND('',#792,.T.);
#792 = EDGE_LOOP('',(#793));
#793 = ORIENTED_EDGE('',*,*,#794,.F.);
#794 = EDGE_CURVE('',#795,#795,#797,.T.);
#795 = VERTEX_POINT('',#796);
#796 = CARTESIAN_POINT('',(185.1,-6.,6.));
#797 = CIRCLE('',#798,1.1);
#798 = AXIS2_PLACEMENT_3D('',#799,#800,#801);
#799 = CARTESIAN_POINT('',(184.,-6.,6.));
#800 = DIRECTION('',(0.,0.,1.));
#801 = DIRECTION('',(1.,0.,0.));
#802 = FACE_BOUND('',#803,.T.);
#803 = EDGE_LOOP('',(#804));
#804 = ORIENTED_EDGE('',*,*,#805,.F.);
#805 = EDGE_CURVE('',#806,#806,#808,.T.);
#806 = VERTEX_POINT('',#807);
#807 = CARTESIAN_POINT('',(197.1,-6.,6.));
#808 = CIRCLE('',#809,1.1);
#809 = AXIS2_PLACEMENT_3D('',#810,#811,#812);
#810 = CARTESIAN_POINT('',(196.,-6.,6.));
#811 = DIRECTION('',(0.,0.,1.));
#812 = DIRECTION('',(1.,0.,0.));
#813 = FACE_BOUND('',#814,.T.);
#814 = EDGE_LOOP('',(#815));
#815 = ORIENTED_EDGE('',*,*,#816,.F.);
#816 = EDGE_CURVE('',#817,#817,#819,.T.);
#817 = VERTEX_POINT('',#818);
#818 = CARTESIAN_POINT('',(53.6,-3.918869757272E-16,6.));
#819 = CIRCLE('',#820,1.6);
#820 = AXIS2_PLACEMENT_3D('',#821,#822,#823);
#821 = CARTESIAN_POINT('',(52.,0.,6.));
#822 = DIRECTION('',(0.,0.,1.));
#823 = DIRECTION('',(1.,0.,0.));
#824 = FACE_BOUND('',#825,.T.);
#825 = EDGE_LOOP('',(#826));
#826 = ORIENTED_EDGE('',*,*,#827,.F.);
#827 = EDGE_CURVE('',#828,#828,#830,.T.);
#828 = VERTEX_POINT('',#829);
#829 = CARTESIAN_POINT('',(63.6,-3.918869757272E-16,6.));
#830 = CIRCLE('',#831,1.6);
#831 = AXIS2_PLACEMENT_3D('',#832,#833,#834);
#832 = CARTESIAN_POINT('',(62.,0.,6.));
#833 = DIRECTION('',(0.,0.,1.));
#834 = DIRECTION('',(1.,0.,0.));
#835 = FACE_BOUND('',#836,.T.);
#836 = EDGE_LOOP('',(#837,#847,#855,#863));
#837 = ORIENTED_EDGE('',*,*,#838,.T.);
#838 = EDGE_CURVE('',#839,#841,#843,.T.);
#839 = VERTEX_POINT('',#840);
#840 = CARTESIAN_POINT('',(121.4,-4.,6.));
#841 = VERTEX_POINT('',#842);
#842 = CARTESIAN_POINT('',(82.,-4.,6.));
#843 = LINE('',#844,#845);
#844 = CARTESIAN_POINT('',(102.30029007957,-4.,6.));
#845 = VECTOR('',#846,1.);
#846 = DIRECTION('',(-1.,0.,0.));
#847 = ORIENTED_EDGE('',*,*,#848,.T.);
#848 = EDGE_CURVE('',#841,#849,#851,.T.);
#849 = VERTEX_POINT('',#850);
#850 = CARTESIAN_POINT('',(82.,4.,6.));
#851 = LINE('',#852,#853);
#852 = CARTESIAN_POINT('',(82.,2.,6.));
#853 = VECTOR('',#854,1.);
#854 = DIRECTION('',(0.,1.,0.));
#855 = ORIENTED_EDGE('',*,*,#856,.T.);
#856 = EDGE_CURVE('',#849,#857,#859,.T.);
#857 = VERTEX_POINT('',#858);
#858 = CARTESIAN_POINT('',(121.4,4.,6.));
#859 = LINE('',#860,#861);
#860 = CARTESIAN_POINT('',(122.00029007957,4.,6.));
#861 = VECTOR('',#862,1.);
#862 = DIRECTION('',(1.,0.,0.));
#863 = ORIENTED_EDGE('',*,*,#864,.T.);
#864 = EDGE_CURVE('',#857,#839,#865,.T.);
#865 = LINE('',#866,#867);
#866 = CARTESIAN_POINT('',(121.4,-2.,6.));
#867 = VECTOR('',#868,1.);
#868 = DIRECTION('',(0.,-1.,0.));
#869 = FACE_BOUND('',#870,.T.);
#870 = EDGE_LOOP('',(#871,#881,#889,#897));
#871 = ORIENTED_EDGE('',*,*,#872,.F.);
#872 = EDGE_CURVE('',#873,#875,#877,.T.);
#873 = VERTEX_POINT('',#874);
#874 = CARTESIAN_POINT('',(126.4,7.,6.));
#875 = VERTEX_POINT('',#876);
#876 = CARTESIAN_POINT('',(126.4,-7.,6.));
#877 = LINE('',#878,#879);
#878 = CARTESIAN_POINT('',(126.4,7.,6.));
#879 = VECTOR('',#880,1.);
#880 = DIRECTION('',(0.,-1.,0.));
#881 = ORIENTED_EDGE('',*,*,#882,.F.);
#882 = EDGE_CURVE('',#883,#873,#885,.T.);
#883 = VERTEX_POINT('',#884);
#884 = CARTESIAN_POINT('',(162.4,7.,6.));
#885 = LINE('',#886,#887);
#886 = CARTESIAN_POINT('',(162.4,7.,6.));
#887 = VECTOR('',#888,1.);
#888 = DIRECTION('',(-1.,0.,0.));
#889 = ORIENTED_EDGE('',*,*,#890,.F.);
#890 = EDGE_CURVE('',#891,#883,#893,.T.);
#891 = VERTEX_POINT('',#892);
#892 = CARTESIAN_POINT('',(162.4,-7.,6.));
#893 = LINE('',#894,#895);
#894 = CARTESIAN_POINT('',(162.4,-7.,6.));
#895 = VECTOR('',#896,1.);
#896 = DIRECTION('',(0.,1.,0.));
#897 = ORIENTED_EDGE('',*,*,#898,.F.);
#898 = EDGE_CURVE('',#875,#891,#899,.T.);
#899 = LINE('',#900,#901);
#900 = CARTESIAN_POINT('',(126.4,-7.,6.));
#901 = VECTOR('',#902,1.);
#902 = DIRECTION('',(1.,0.,0.));
#903 = FACE_BOUND('',#904,.T.);
#904 = EDGE_LOOP('',(#905));
#905 = ORIENTED_EDGE('',*,*,#906,.F.);
#906 = EDGE_CURVE('',#907,#907,#909,.T.);
#907 = VERTEX_POINT('',#908);
#908 = CARTESIAN_POINT('',(193.,-7.347880794884E-16,6.));
#909 = CIRCLE('',#910,3.);
#910 = AXIS2_PLACEMENT_3D('',#911,#912,#913);
#911 = CARTESIAN_POINT('',(190.,0.,6.));
#912 = DIRECTION('',(0.,0.,1.));
#913 = DIRECTION('',(1.,0.,0.));
#914 = FACE_BOUND('',#915,.T.);
#915 = EDGE_LOOP('',(#916));
#916 = ORIENTED_EDGE('',*,*,#917,.F.);
#917 = EDGE_CURVE('',#918,#918,#920,.T.);
#918 = VERTEX_POINT('',#919);
#919 = CARTESIAN_POINT('',(185.1,6.,6.));
#920 = CIRCLE('',#921,1.1);
#921 = AXIS2_PLACEMENT_3D('',#922,#923,#924);
#922 = CARTESIAN_POINT('',(184.,6.,6.));
#923 = DIRECTION('',(0.,0.,1.));
#924 = DIRECTION('',(1.,0.,0.));
#925 = FACE_BOUND('',#926,.T.);
#926 = EDGE_LOOP('',(#927));
#927 = ORIENTED_EDGE('',*,*,#928,.F.);
#928 = EDGE_CURVE('',#929,#929,#931,.T.);
#929 = VERTEX_POINT('',#930);
#930 = CARTESIAN_POINT('',(197.1,6.,6.));
#931 = CIRCLE('',#932,1.1);
#932 = AXIS2_PLACEMENT_3D('',#933,#934,#935);
#933 = CARTESIAN_POINT('',(196.,6.,6.));
#934 = DIRECTION('',(0.,0.,1.));
#935 = DIRECTION('',(1.,0.,0.));
#936 = PLANE('',#937);
#937 = AXIS2_PLACEMENT_3D('',#938,#939,#940);
#938 = CARTESIAN_POINT('',(122.60058015915,-2.453980048581E-16,6.));
#939 = DIRECTION('',(0.,0.,1.));
#940 = DIRECTION('',(1.,0.,0.));
#941 = ADVANCED_FACE('',(#942),#953,.T.);
#942 = FACE_BOUND('',#943,.T.);
#943 = EDGE_LOOP('',(#944,#945,#946,#952));
#944 = ORIENTED_EDGE('',*,*,#56,.T.);
#945 = ORIENTED_EDGE('',*,*,#785,.T.);
#946 = ORIENTED_EDGE('',*,*,#947,.F.);
#947 = EDGE_CURVE('',#286,#778,#948,.T.);
#948 = LINE('',#949,#950);
#949 = CARTESIAN_POINT('',(172.85714285714,-10.13334120966,0.));
#950 = VECTOR('',#951,1.);
#951 = DIRECTION('',(0.,0.,1.));
#952 = ORIENTED_EDGE('',*,*,#285,.F.);
#953 = PLANE('',#954);
#954 = AXIS2_PLACEMENT_3D('',#955,#956,#957);
#955 = CARTESIAN_POINT('',(181.42857142857,-10.04398619524,0.));
#956 = DIRECTION('',(1.042418527086E-02,-0.999945666705,0.));
#957 = DIRECTION('',(-0.999945666705,-1.042418527086E-02,0.));
#958 = ADVANCED_FACE('',(#959),#978,.T.);
#959 = FACE_BOUND('',#960,.T.);
#960 = EDGE_LOOP('',(#961,#962,#963,#969,#970,#971));
#961 = ORIENTED_EDGE('',*,*,#78,.F.);
#962 = ORIENTED_EDGE('',*,*,#276,.F.);
#963 = ORIENTED_EDGE('',*,*,#964,.T.);
#964 = EDGE_CURVE('',#269,#538,#965,.T.);
#965 = LINE('',#966,#967);
#966 = CARTESIAN_POINT('',(181.42857142857,10.043986195245,0.));
#967 = VECTOR('',#968,1.);
#968 = DIRECTION('',(0.,0.,1.));
#969 = ORIENTED_EDGE('',*,*,#537,.T.);
#970 = ORIENTED_EDGE('',*,*,#529,.T.);
#971 = ORIENTED_EDGE('',*,*,#972,.T.);
#972 = EDGE_CURVE('',#521,#81,#973,.T.);
#973 = HYPERBOLA('',#974,9.999868329707,9.999868329707);
#974 = AXIS2_PLACEMENT_3D('',#975,#976,#977);
#975 = CARTESIAN_POINT('',(190.0513158764,9.999736661148,16.8));
#976 = DIRECTION('',(5.131655209078E-03,0.999986832971,0.));
#977 = DIRECTION('',(0.,0.,-1.));
#978 = PLANE('',#979);
#979 = AXIS2_PLACEMENT_3D('',#980,#981,#982);
#980 = CARTESIAN_POINT('',(181.42857142857,10.043986195245,0.));
#981 = DIRECTION('',(5.131655209078E-03,0.999986832971,0.));
#982 = DIRECTION('',(0.999986832971,-5.131655209078E-03,0.));
#983 = ADVANCED_FACE('',(#984),#990,.T.);
#984 = FACE_BOUND('',#985,.F.);
#985 = EDGE_LOOP('',(#986,#987,#988,#989));
#986 = ORIENTED_EDGE('',*,*,#139,.F.);
#987 = ORIENTED_EDGE('',*,*,#520,.T.);
#988 = ORIENTED_EDGE('',*,*,#972,.T.);
#989 = ORIENTED_EDGE('',*,*,#88,.F.);
#990 = CONICAL_SURFACE('',#991,12.,0.785398163397);
#991 = AXIS2_PLACEMENT_3D('',#992,#993,#994);
#992 = CARTESIAN_POINT('',(190.,0.,4.8));
#993 = DIRECTION('',(-0.,-0.,-1.));
#994 = DIRECTION('',(1.,0.,0.));
#995 = ADVANCED_FACE('',(#996),#1012,.F.);
#996 = FACE_BOUND('',#997,.F.);
#997 = EDGE_LOOP('',(#998,#999,#1005,#1006));
#998 = ORIENTED_EDGE('',*,*,#154,.F.);
#999 = ORIENTED_EDGE('',*,*,#1000,.T.);
#1000 = EDGE_CURVE('',#155,#650,#1001,.T.);
#1001 = LINE('',#1002,#1003);
#1002 = CARTESIAN_POINT('',(70.,9.,0.));
#1003 = VECTOR('',#1004,1.);
#1004 = DIRECTION('',(0.,0.,1.));
#1005 = ORIENTED_EDGE('',*,*,#657,.T.);
#1006 = ORIENTED_EDGE('',*,*,#1007,.F.);
#1007 = EDGE_CURVE('',#157,#658,#1008,.T.);
#1008 = LINE('',#1009,#1010);
#1009 = CARTESIAN_POINT('',(48.,9.,0.));
#1010 = VECTOR('',#1011,1.);
#1011 = DIRECTION('',(0.,0.,1.));
#1012 = PLANE('',#1013);
#1013 = AXIS2_PLACEMENT_3D('',#1014,#1015,#1016);
#1014 = CARTESIAN_POINT('',(70.5,9.,0.));
#1015 = DIRECTION('',(0.,-1.,0.));
#1016 = DIRECTION('',(-1.,0.,0.));
#1017 = ADVANCED_FACE('',(#1018),#1029,.T.);
#1018 = FACE_BOUND('',#1019,.T.);
#1019 = EDGE_LOOP('',(#1020,#1021,#1022,#1023));
#1020 = ORIENTED_EDGE('',*,*,#164,.F.);
#1021 = ORIENTED_EDGE('',*,*,#1000,.T.);
#1022 = ORIENTED_EDGE('',*,*,#649,.T.);
#1023 = ORIENTED_EDGE('',*,*,#1024,.F.);
#1024 = EDGE_CURVE('',#165,#642,#1025,.T.);
#1025 = LINE('',#1026,#1027);
#1026 = CARTESIAN_POINT('',(70.,13.,0.));
#1027 = VECTOR('',#1028,1.);
#1028 = DIRECTION('',(0.,0.,1.));
#1029 = PLANE('',#1030);
#1030 = AXIS2_PLACEMENT_3D('',#1031,#1032,#1033);
#1031 = CARTESIAN_POINT('',(70.,-13.,0.));
#1032 = DIRECTION('',(-1.,0.,0.));
#1033 = DIRECTION('',(0.,1.,0.));
#1034 = ADVANCED_FACE('',(#1035),#1046,.F.);
#1035 = FACE_BOUND('',#1036,.F.);
#1036 = EDGE_LOOP('',(#1037,#1038,#1039,#1045));
#1037 = ORIENTED_EDGE('',*,*,#1007,.T.);
#1038 = ORIENTED_EDGE('',*,*,#665,.T.);
#1039 = ORIENTED_EDGE('',*,*,#1040,.F.);
#1040 = EDGE_CURVE('',#398,#666,#1041,.T.);
#1041 = LINE('',#1042,#1043);
#1042 = CARTESIAN_POINT('',(48.,-9.,0.));
#1043 = VECTOR('',#1044,1.);
#1044 = DIRECTION('',(0.,0.,1.));
#1045 = ORIENTED_EDGE('',*,*,#405,.F.);
#1046 = PLANE('',#1047);
#1047 = AXIS2_PLACEMENT_3D('',#1048,#1049,#1050);
#1048 = CARTESIAN_POINT('',(48.,9.,0.));
#1049 = DIRECTION('',(1.,0.,0.));
#1050 = DIRECTION('',(0.,-1.,0.));
#1051 = ADVANCED_FACE('',(#1052),#1063,.T.);
#1052 = FACE_BOUND('',#1053,.T.);
#1053 = EDGE_LOOP('',(#1054,#1055,#1056,#1062));
#1054 = ORIENTED_EDGE('',*,*,#1024,.T.);
#1055 = ORIENTED_EDGE('',*,*,#641,.T.);
#1056 = ORIENTED_EDGE('',*,*,#1057,.F.);
#1057 = EDGE_CURVE('',#173,#634,#1058,.T.);
#1058 = LINE('',#1059,#1060);
#1059 = CARTESIAN_POINT('',(78.571428571429,12.664561578552,0.));
#1060 = VECTOR('',#1061,1.);
#1061 = DIRECTION('',(0.,0.,1.));
#1062 = ORIENTED_EDGE('',*,*,#172,.F.);
#1063 = PLANE('',#1064);
#1064 = AXIS2_PLACEMENT_3D('',#1065,#1066,#1067);
#1065 = CARTESIAN_POINT('',(70.,13.,0.));
#1066 = DIRECTION('',(3.910454949879E-02,0.999235124587,0.));
#1067 = DIRECTION('',(0.999235124587,-3.910454949879E-02,0.));
#1068 = ADVANCED_FACE('',(#1069),#1080,.F.);
#1069 = FACE_BOUND('',#1070,.F.);
#1070 = EDGE_LOOP('',(#1071,#1072,#1073,#1074));
#1071 = ORIENTED_EDGE('',*,*,#397,.F.);
#1072 = ORIENTED_EDGE('',*,*,#1040,.T.);
#1073 = ORIENTED_EDGE('',*,*,#673,.T.);
#1074 = ORIENTED_EDGE('',*,*,#1075,.T.);
#1075 = EDGE_CURVE('',#674,#390,#1076,.T.);
#1076 = LINE('',#1077,#1078);
#1077 = CARTESIAN_POINT('',(70.,-9.,0.));
#1078 = VECTOR('',#1079,1.);
#1079 = DIRECTION('',(0.,0.,-1.));
#1080 = PLANE('',#1081);
#1081 = AXIS2_PLACEMENT_3D('',#1082,#1083,#1084);
#1082 = CARTESIAN_POINT('',(48.,-9.,0.));
#1083 = DIRECTION('',(0.,1.,0.));
#1084 = DIRECTION('',(1.,0.,0.));
#1085 = ADVANCED_FACE('',(#1086),#1097,.T.);
#1086 = FACE_BOUND('',#1087,.T.);
#1087 = EDGE_LOOP('',(#1088,#1089,#1090,#1096));
#1088 = ORIENTED_EDGE('',*,*,#1057,.T.);
#1089 = ORIENTED_EDGE('',*,*,#633,.T.);
#1090 = ORIENTED_EDGE('',*,*,#1091,.F.);
#1091 = EDGE_CURVE('',#181,#626,#1092,.T.);
#1092 = LINE('',#1093,#1094);
#1093 = CARTESIAN_POINT('',(87.142857142857,12.344263314503,0.));
#1094 = VECTOR('',#1095,1.);
#1095 = DIRECTION('',(0.,0.,1.));
#1096 = ORIENTED_EDGE('',*,*,#180,.F.);
#1097 = PLANE('',#1098);
#1098 = AXIS2_PLACEMENT_3D('',#1099,#1100,#1101);
#1099 = CARTESIAN_POINT('',(78.571428571429,12.664561578552,0.));
#1100 = DIRECTION('',(3.734206809463E-02,0.999302541751,0.));
#1101 = DIRECTION('',(0.999302541751,-3.734206809463E-02,0.));
#1102 = ADVANCED_FACE('',(#1103),#1114,.T.);
#1103 = FACE_BOUND('',#1104,.T.);
#1104 = EDGE_LOOP('',(#1105,#1106,#1112,#1113));
#1105 = ORIENTED_EDGE('',*,*,#389,.F.);
#1106 = ORIENTED_EDGE('',*,*,#1107,.T.);
#1107 = EDGE_CURVE('',#382,#682,#1108,.T.);
#1108 = LINE('',#1109,#1110);
#1109 = CARTESIAN_POINT('',(70.,-13.,0.));
#1110 = VECTOR('',#1111,1.);
#1111 = DIRECTION('',(0.,0.,1.));
#1112 = ORIENTED_EDGE('',*,*,#681,.T.);
#1113 = ORIENTED_EDGE('',*,*,#1075,.T.);
#1114 = PLANE('',#1115);
#1115 = AXIS2_PLACEMENT_3D('',#1116,#1117,#1118);
#1116 = CARTESIAN_POINT('',(70.,-13.,0.));
#1117 = DIRECTION('',(-1.,0.,0.));
#1118 = DIRECTION('',(0.,1.,0.));
#1119 = ADVANCED_FACE('',(#1120),#1131,.T.);
#1120 = FACE_BOUND('',#1121,.T.);
#1121 = EDGE_LOOP('',(#1122,#1123,#1124,#1130));
#1122 = ORIENTED_EDGE('',*,*,#1091,.T.);
#1123 = ORIENTED_EDGE('',*,*,#625,.T.);
#1124 = ORIENTED_EDGE('',*,*,#1125,.F.);
#1125 = EDGE_CURVE('',#189,#618,#1126,.T.);
#1126 = LINE('',#1127,#1128);
#1127 = CARTESIAN_POINT('',(95.714285714286,12.039598546912,0.));
#1128 = VECTOR('',#1129,1.);
#1129 = DIRECTION('',(0.,0.,1.));
#1130 = ORIENTED_EDGE('',*,*,#188,.F.);
#1131 = PLANE('',#1132);
#1132 = AXIS2_PLACEMENT_3D('',#1133,#1134,#1135);
#1133 = CARTESIAN_POINT('',(87.142857142857,12.344263314503,0.));
#1134 = DIRECTION('',(3.552179099903E-02,0.99936890204,0.));
#1135 = DIRECTION('',(0.99936890204,-3.552179099903E-02,0.));
#1136 = ADVANCED_FACE('',(#1137),#1148,.T.);
#1137 = FACE_BOUND('',#1138,.T.);
#1138 = EDGE_LOOP('',(#1139,#1145,#1146,#1147));
#1139 = ORIENTED_EDGE('',*,*,#1140,.T.);
#1140 = EDGE_CURVE('',#374,#690,#1141,.T.);
#1141 = LINE('',#1142,#1143);
#1142 = CARTESIAN_POINT('',(78.571428571429,-12.66456157855,0.));
#1143 = VECTOR('',#1144,1.);
#1144 = DIRECTION('',(0.,0.,1.));
#1145 = ORIENTED_EDGE('',*,*,#689,.T.);
#1146 = ORIENTED_EDGE('',*,*,#1107,.F.);
#1147 = ORIENTED_EDGE('',*,*,#381,.F.);
#1148 = PLANE('',#1149);
#1149 = AXIS2_PLACEMENT_3D('',#1150,#1151,#1152);
#1150 = CARTESIAN_POINT('',(78.571428571429,-12.66456157855,0.));
#1151 = DIRECTION('',(3.910454949879E-02,-0.999235124587,0.));
#1152 = DIRECTION('',(-0.999235124587,-3.910454949879E-02,0.));
#1153 = ADVANCED_FACE('',(#1154),#1165,.T.);
#1154 = FACE_BOUND('',#1155,.T.);
#1155 = EDGE_LOOP('',(#1156,#1157,#1158,#1164));
#1156 = ORIENTED_EDGE('',*,*,#1125,.T.);
#1157 = ORIENTED_EDGE('',*,*,#617,.T.);
#1158 = ORIENTED_EDGE('',*,*,#1159,.F.);
#1159 = EDGE_CURVE('',#197,#610,#1160,.T.);
#1160 = LINE('',#1161,#1162);
#1161 = CARTESIAN_POINT('',(104.28571428571,11.751121973253,0.));
#1162 = VECTOR('',#1163,1.);
#1163 = DIRECTION('',(0.,0.,1.));
#1164 = ORIENTED_EDGE('',*,*,#196,.F.);
#1165 = PLANE('',#1166);
#1166 = AXIS2_PLACEMENT_3D('',#1167,#1168,#1169);
#1167 = CARTESIAN_POINT('',(95.714285714286,12.039598546912,0.));
#1168 = DIRECTION('',(3.363655559804E-02,0.99943413096,0.));
#1169 = DIRECTION('',(0.99943413096,-3.363655559804E-02,0.));
#1170 = ADVANCED_FACE('',(#1171),#1182,.T.);
#1171 = FACE_BOUND('',#1172,.T.);
#1172 = EDGE_LOOP('',(#1173,#1179,#1180,#1181));
#1173 = ORIENTED_EDGE('',*,*,#1174,.T.);
#1174 = EDGE_CURVE('',#366,#698,#1175,.T.);
#1175 = LINE('',#1176,#1177);
#1176 = CARTESIAN_POINT('',(87.142857142857,-12.3442633145,0.));
#1177 = VECTOR('',#1178,1.);
#1178 = DIRECTION('',(0.,0.,1.));
#1179 = ORIENTED_EDGE('',*,*,#697,.T.);
#1180 = ORIENTED_EDGE('',*,*,#1140,.F.);
#1181 = ORIENTED_EDGE('',*,*,#373,.F.);
#1182 = PLANE('',#1183);
#1183 = AXIS2_PLACEMENT_3D('',#1184,#1185,#1186);
#1184 = CARTESIAN_POINT('',(87.142857142857,-12.3442633145,0.));
#1185 = DIRECTION('',(3.734206809463E-02,-0.999302541751,0.));
#1186 = DIRECTION('',(-0.999302541751,-3.734206809463E-02,0.));
#1187 = ADVANCED_FACE('',(#1188),#1199,.T.);
#1188 = FACE_BOUND('',#1189,.T.);
#1189 = EDGE_LOOP('',(#1190,#1191,#1192,#1198));
#1190 = ORIENTED_EDGE('',*,*,#1159,.T.);
#1191 = ORIENTED_EDGE('',*,*,#609,.T.);
#1192 = ORIENTED_EDGE('',*,*,#1193,.F.);
#1193 = EDGE_CURVE('',#205,#602,#1194,.T.);
#1194 = LINE('',#1195,#1196);
#1195 = CARTESIAN_POINT('',(112.85714285714,11.479464036993,0.));
#1196 = VECTOR('',#1197,1.);
#1197 = DIRECTION('',(0.,0.,1.));
#1198 = ORIENTED_EDGE('',*,*,#204,.F.);
#1199 = PLANE('',#1200);
#1200 = AXIS2_PLACEMENT_3D('',#1201,#1202,#1203);
#1201 = CARTESIAN_POINT('',(104.28571428571,11.751121973253,0.));
#1202 = DIRECTION('',(3.167752027941E-02,0.999498141423,0.));
#1203 = DIRECTION('',(0.999498141423,-3.167752027941E-02,0.));
#1204 = ADVANCED_FACE('',(#1205),#1216,.T.);
#1205 = FACE_BOUND('',#1206,.T.);
#1206 = EDGE_LOOP('',(#1207,#1213,#1214,#1215));
#1207 = ORIENTED_EDGE('',*,*,#1208,.T.);
#1208 = EDGE_CURVE('',#358,#706,#1209,.T.);
#1209 = LINE('',#1210,#1211);
#1210 = CARTESIAN_POINT('',(95.714285714286,-12.03959854691,0.));
#1211 = VECTOR('',#1212,1.);
#1212 = DIRECTION('',(0.,0.,1.));
#1213 = ORIENTED_EDGE('',*,*,#705,.T.);
#1214 = ORIENTED_EDGE('',*,*,#1174,.F.);
#1215 = ORIENTED_EDGE('',*,*,#365,.F.);
#1216 = PLANE('',#1217);
#1217 = AXIS2_PLACEMENT_3D('',#1218,#1219,#1220);
#1218 = CARTESIAN_POINT('',(95.714285714286,-12.03959854691,0.));
#1219 = DIRECTION('',(3.552179099903E-02,-0.99936890204,0.));
#1220 = DIRECTION('',(-0.99936890204,-3.552179099903E-02,0.));
#1221 = ADVANCED_FACE('',(#1222),#1233,.T.);
#1222 = FACE_BOUND('',#1223,.T.);
#1223 = EDGE_LOOP('',(#1224,#1225,#1226,#1232));
#1224 = ORIENTED_EDGE('',*,*,#1193,.T.);
#1225 = ORIENTED_EDGE('',*,*,#601,.T.);
#1226 = ORIENTED_EDGE('',*,*,#1227,.F.);
#1227 = EDGE_CURVE('',#213,#594,#1228,.T.);
#1228 = LINE('',#1229,#1230);
#1229 = CARTESIAN_POINT('',(121.42857142857,11.225350625538,0.));
#1230 = VECTOR('',#1231,1.);
#1231 = DIRECTION('',(0.,0.,1.));
#1232 = ORIENTED_EDGE('',*,*,#212,.F.);
#1233 = PLANE('',#1234);
#1234 = AXIS2_PLACEMENT_3D('',#1235,#1236,#1237);
#1235 = CARTESIAN_POINT('',(112.85714285714,11.479464036993,0.));
#1236 = DIRECTION('',(2.963354479017E-02,0.999560830076,0.));
#1237 = DIRECTION('',(0.999560830076,-2.963354479017E-02,0.));
#1238 = ADVANCED_FACE('',(#1239),#1250,.T.);
#1239 = FACE_BOUND('',#1240,.T.);
#1240 = EDGE_LOOP('',(#1241,#1247,#1248,#1249));
#1241 = ORIENTED_EDGE('',*,*,#1242,.T.);
#1242 = EDGE_CURVE('',#350,#714,#1243,.T.);
#1243 = LINE('',#1244,#1245);
#1244 = CARTESIAN_POINT('',(104.28571428571,-11.75112197325,0.));
#1245 = VECTOR('',#1246,1.);
#1246 = DIRECTION('',(0.,0.,1.));
#1247 = ORIENTED_EDGE('',*,*,#713,.T.);
#1248 = ORIENTED_EDGE('',*,*,#1208,.F.);
#1249 = ORIENTED_EDGE('',*,*,#357,.F.);
#1250 = PLANE('',#1251);
#1251 = AXIS2_PLACEMENT_3D('',#1252,#1253,#1254);
#1252 = CARTESIAN_POINT('',(104.28571428571,-11.75112197325,0.));
#1253 = DIRECTION('',(3.363655559804E-02,-0.99943413096,0.));
#1254 = DIRECTION('',(-0.99943413096,-3.363655559804E-02,0.));
#1255 = ADVANCED_FACE('',(#1256),#1267,.T.);
#1256 = FACE_BOUND('',#1257,.T.);
#1257 = EDGE_LOOP('',(#1258,#1259,#1260,#1266));
#1258 = ORIENTED_EDGE('',*,*,#1227,.T.);
#1259 = ORIENTED_EDGE('',*,*,#593,.T.);
#1260 = ORIENTED_EDGE('',*,*,#1261,.F.);
#1261 = EDGE_CURVE('',#221,#586,#1262,.T.);
#1262 = LINE('',#1263,#1264);
#1263 = CARTESIAN_POINT('',(130.,10.98963093308,0.));
#1264 = VECTOR('',#1265,1.);
#1265 = DIRECTION('',(0.,0.,1.));
#1266 = ORIENTED_EDGE('',*,*,#220,.F.);
#1267 = PLANE('',#1268);
#1268 = AXIS2_PLACEMENT_3D('',#1269,#1270,#1271);
#1269 = CARTESIAN_POINT('',(121.42857142857,11.225350625538,0.));
#1270 = DIRECTION('',(2.749023752861E-02,0.999622072006,0.));
#1271 = DIRECTION('',(0.999622072006,-2.749023752861E-02,0.));
#1272 = ADVANCED_FACE('',(#1273),#1284,.T.);
#1273 = FACE_BOUND('',#1274,.T.);
#1274 = EDGE_LOOP('',(#1275,#1281,#1282,#1283));
#1275 = ORIENTED_EDGE('',*,*,#1276,.T.);
#1276 = EDGE_CURVE('',#342,#722,#1277,.T.);
#1277 = LINE('',#1278,#1279);
#1278 = CARTESIAN_POINT('',(112.85714285714,-11.47946403699,0.));
#1279 = VECTOR('',#1280,1.);
#1280 = DIRECTION('',(0.,0.,1.));
#1281 = ORIENTED_EDGE('',*,*,#721,.T.);
#1282 = ORIENTED_EDGE('',*,*,#1242,.F.);
#1283 = ORIENTED_EDGE('',*,*,#349,.F.);
#1284 = PLANE('',#1285);
#1285 = AXIS2_PLACEMENT_3D('',#1286,#1287,#1288);
#1286 = CARTESIAN_POINT('',(112.85714285714,-11.47946403699,0.));
#1287 = DIRECTION('',(3.167752027941E-02,-0.999498141423,0.));
#1288 = DIRECTION('',(-0.999498141423,-3.167752027941E-02,0.));
#1289 = ADVANCED_FACE('',(#1290),#1301,.T.);
#1290 = FACE_BOUND('',#1291,.T.);
#1291 = EDGE_LOOP('',(#1292,#1293,#1294,#1300));
#1292 = ORIENTED_EDGE('',*,*,#1261,.T.);
#1293 = ORIENTED_EDGE('',*,*,#585,.T.);
#1294 = ORIENTED_EDGE('',*,*,#1295,.F.);
#1295 = EDGE_CURVE('',#229,#578,#1296,.T.);
#1296 = LINE('',#1297,#1298);
#1297 = CARTESIAN_POINT('',(138.57142857142,10.773318497105,0.));
#1298 = VECTOR('',#1299,1.);
#1299 = DIRECTION('',(0.,0.,1.));
#1300 = ORIENTED_EDGE('',*,*,#228,.F.);
#1301 = PLANE('',#1302);
#1302 = AXIS2_PLACEMENT_3D('',#1303,#1304,#1305);
#1303 = CARTESIAN_POINT('',(130.,10.98963093308,0.));
#1304 = DIRECTION('',(2.522841842434E-02,0.999681712799,0.));
#1305 = DIRECTION('',(0.999681712799,-2.522841842434E-02,0.));
#1306 = ADVANCED_FACE('',(#1307),#1318,.T.);
#1307 = FACE_BOUND('',#1308,.T.);
#1308 = EDGE_LOOP('',(#1309,#1315,#1316,#1317));
#1309 = ORIENTED_EDGE('',*,*,#1310,.T.);
#1310 = EDGE_CURVE('',#334,#730,#1311,.T.);
#1311 = LINE('',#1312,#1313);
#1312 = CARTESIAN_POINT('',(121.42857142857,-11.22535062553,0.));
#1313 = VECTOR('',#1314,1.);
#1314 = DIRECTION('',(0.,0.,1.));
#1315 = ORIENTED_EDGE('',*,*,#729,.T.);
#1316 = ORIENTED_EDGE('',*,*,#1276,.F.);
#1317 = ORIENTED_EDGE('',*,*,#341,.F.);
#1318 = PLANE('',#1319);
#1319 = AXIS2_PLACEMENT_3D('',#1320,#1321,#1322);
#1320 = CARTESIAN_POINT('',(121.42857142857,-11.22535062553,0.));
#1321 = DIRECTION('',(2.963354479017E-02,-0.999560830076,0.));
#1322 = DIRECTION('',(-0.999560830076,-2.963354479017E-02,0.));
#1323 = ADVANCED_FACE('',(#1324),#1335,.T.);
#1324 = FACE_BOUND('',#1325,.T.);
#1325 = EDGE_LOOP('',(#1326,#1327,#1328,#1334));
#1326 = ORIENTED_EDGE('',*,*,#1295,.T.);
#1327 = ORIENTED_EDGE('',*,*,#577,.T.);
#1328 = ORIENTED_EDGE('',*,*,#1329,.F.);
#1329 = EDGE_CURVE('',#237,#570,#1330,.T.);
#1330 = LINE('',#1331,#1332);
#1331 = CARTESIAN_POINT('',(147.14285714285,10.577654824109,0.));
#1332 = VECTOR('',#1333,1.);
#1333 = DIRECTION('',(0.,0.,1.));
#1334 = ORIENTED_EDGE('',*,*,#236,.F.);
#1335 = PLANE('',#1336);
#1336 = AXIS2_PLACEMENT_3D('',#1337,#1338,#1339);
#1337 = CARTESIAN_POINT('',(138.57142857142,10.773318497105,0.));
#1338 = DIRECTION('',(2.282148325027E-02,0.999739556036,0.));
#1339 = DIRECTION('',(0.999739556036,-2.282148325027E-02,0.));
#1340 = ADVANCED_FACE('',(#1341),#1352,.T.);
#1341 = FACE_BOUND('',#1342,.T.);
#1342 = EDGE_LOOP('',(#1343,#1349,#1350,#1351));
#1343 = ORIENTED_EDGE('',*,*,#1344,.T.);
#1344 = EDGE_CURVE('',#326,#738,#1345,.T.);
#1345 = LINE('',#1346,#1347);
#1346 = CARTESIAN_POINT('',(130.,-10.98963093308,0.));
#1347 = VECTOR('',#1348,1.);
#1348 = DIRECTION('',(0.,0.,1.));
#1349 = ORIENTED_EDGE('',*,*,#737,.T.);
#1350 = ORIENTED_EDGE('',*,*,#1310,.F.);
#1351 = ORIENTED_EDGE('',*,*,#333,.F.);
#1352 = PLANE('',#1353);
#1353 = AXIS2_PLACEMENT_3D('',#1354,#1355,#1356);
#1354 = CARTESIAN_POINT('',(130.,-10.98963093308,0.));
#1355 = DIRECTION('',(2.749023752861E-02,-0.999622072006,0.));
#1356 = DIRECTION('',(-0.999622072006,-2.749023752861E-02,0.));
#1357 = ADVANCED_FACE('',(#1358),#1369,.T.);
#1358 = FACE_BOUND('',#1359,.T.);
#1359 = EDGE_LOOP('',(#1360,#1361,#1362,#1368));
#1360 = ORIENTED_EDGE('',*,*,#1329,.T.);
#1361 = ORIENTED_EDGE('',*,*,#569,.T.);
#1362 = ORIENTED_EDGE('',*,*,#1363,.F.);
#1363 = EDGE_CURVE('',#245,#562,#1364,.T.);
#1364 = LINE('',#1365,#1366);
#1365 = CARTESIAN_POINT('',(155.71428571428,10.404214960967,0.));
#1366 = VECTOR('',#1367,1.);
#1367 = DIRECTION('',(0.,0.,1.));
#1368 = ORIENTED_EDGE('',*,*,#244,.F.);
#1369 = PLANE('',#1370);
#1370 = AXIS2_PLACEMENT_3D('',#1371,#1372,#1373);
#1371 = CARTESIAN_POINT('',(147.14285714285,10.577654824109,0.));
#1372 = DIRECTION('',(2.023050952281E-02,0.9997953423,0.));
#1373 = DIRECTION('',(0.9997953423,-2.023050952281E-02,0.));
#1374 = ADVANCED_FACE('',(#1375),#1386,.T.);
#1375 = FACE_BOUND('',#1376,.T.);
#1376 = EDGE_LOOP('',(#1377,#1383,#1384,#1385));
#1377 = ORIENTED_EDGE('',*,*,#1378,.T.);
#1378 = EDGE_CURVE('',#318,#746,#1379,.T.);
#1379 = LINE('',#1380,#1381);
#1380 = CARTESIAN_POINT('',(138.57142857142,-10.7733184971,0.));
#1381 = VECTOR('',#1382,1.);
#1382 = DIRECTION('',(0.,0.,1.));
#1383 = ORIENTED_EDGE('',*,*,#745,.T.);
#1384 = ORIENTED_EDGE('',*,*,#1344,.F.);
#1385 = ORIENTED_EDGE('',*,*,#325,.F.);
#1386 = PLANE('',#1387);
#1387 = AXIS2_PLACEMENT_3D('',#1388,#1389,#1390);
#1388 = CARTESIAN_POINT('',(138.57142857142,-10.7733184971,0.));
#1389 = DIRECTION('',(2.522841842434E-02,-0.999681712799,0.));
#1390 = DIRECTION('',(-0.999681712799,-2.522841842434E-02,0.));
#1391 = ADVANCED_FACE('',(#1392),#1403,.T.);
#1392 = FACE_BOUND('',#1393,.T.);
#1393 = EDGE_LOOP('',(#1394,#1395,#1396,#1402));
#1394 = ORIENTED_EDGE('',*,*,#1363,.T.);
#1395 = ORIENTED_EDGE('',*,*,#561,.T.);
#1396 = ORIENTED_EDGE('',*,*,#1397,.F.);
#1397 = EDGE_CURVE('',#253,#554,#1398,.T.);
#1398 = LINE('',#1399,#1400);
#1399 = CARTESIAN_POINT('',(164.28571428571,10.255099968619,0.));
#1400 = VECTOR('',#1401,1.);
#1401 = DIRECTION('',(0.,0.,1.));
#1402 = ORIENTED_EDGE('',*,*,#252,.F.);
#1403 = PLANE('',#1404);
#1404 = AXIS2_PLACEMENT_3D('',#1405,#1406,#1407);
#1405 = CARTESIAN_POINT('',(155.71428571428,10.404214960967,0.));
#1406 = DIRECTION('',(1.739411716871E-02,0.9998487109,0.));
#1407 = DIRECTION('',(0.9998487109,-1.739411716871E-02,0.));
#1408 = ADVANCED_FACE('',(#1409),#1420,.T.);
#1409 = FACE_BOUND('',#1410,.T.);
#1410 = EDGE_LOOP('',(#1411,#1417,#1418,#1419));
#1411 = ORIENTED_EDGE('',*,*,#1412,.T.);
#1412 = EDGE_CURVE('',#310,#754,#1413,.T.);
#1413 = LINE('',#1414,#1415);
#1414 = CARTESIAN_POINT('',(147.14285714285,-10.5776548241,0.));
#1415 = VECTOR('',#1416,1.);
#1416 = DIRECTION('',(0.,0.,1.));
#1417 = ORIENTED_EDGE('',*,*,#753,.T.);
#1418 = ORIENTED_EDGE('',*,*,#1378,.F.);
#1419 = ORIENTED_EDGE('',*,*,#317,.F.);
#1420 = PLANE('',#1421);
#1421 = AXIS2_PLACEMENT_3D('',#1422,#1423,#1424);
#1422 = CARTESIAN_POINT('',(147.14285714285,-10.5776548241,0.));
#1423 = DIRECTION('',(2.282148325027E-02,-0.999739556036,0.));
#1424 = DIRECTION('',(-0.999739556036,-2.282148325027E-02,0.));
#1425 = ADVANCED_FACE('',(#1426),#1437,.T.);
#1426 = FACE_BOUND('',#1427,.T.);
#1427 = EDGE_LOOP('',(#1428,#1429,#1430,#1436));
#1428 = ORIENTED_EDGE('',*,*,#1397,.T.);
#1429 = ORIENTED_EDGE('',*,*,#553,.T.);
#1430 = ORIENTED_EDGE('',*,*,#1431,.F.);
#1431 = EDGE_CURVE('',#261,#546,#1432,.T.);
#1432 = LINE('',#1433,#1434);
#1433 = CARTESIAN_POINT('',(172.85714285714,10.133341209662,0.));
#1434 = VECTOR('',#1435,1.);
#1435 = DIRECTION('',(0.,0.,1.));
#1436 = ORIENTED_EDGE('',*,*,#260,.F.);
#1437 = PLANE('',#1438);
#1438 = AXIS2_PLACEMENT_3D('',#1439,#1440,#1441);
#1439 = CARTESIAN_POINT('',(164.28571428571,10.255099968619,0.));
#1440 = DIRECTION('',(1.420375554797E-02,0.999899121576,0.));
#1441 = DIRECTION('',(0.999899121576,-1.420375554797E-02,0.));
#1442 = ADVANCED_FACE('',(#1443),#1454,.T.);
#1443 = FACE_BOUND('',#1444,.T.);
#1444 = EDGE_LOOP('',(#1445,#1451,#1452,#1453));
#1445 = ORIENTED_EDGE('',*,*,#1446,.T.);
#1446 = EDGE_CURVE('',#302,#762,#1447,.T.);
#1447 = LINE('',#1448,#1449);
#1448 = CARTESIAN_POINT('',(155.71428571428,-10.40421496096,0.));
#1449 = VECTOR('',#1450,1.);
#1450 = DIRECTION('',(0.,0.,1.));
#1451 = ORIENTED_EDGE('',*,*,#761,.T.);
#1452 = ORIENTED_EDGE('',*,*,#1412,.F.);
#1453 = ORIENTED_EDGE('',*,*,#309,.F.);
#1454 = PLANE('',#1455);
#1455 = AXIS2_PLACEMENT_3D('',#1456,#1457,#1458);
#1456 = CARTESIAN_POINT('',(155.71428571428,-10.40421496096,0.));
#1457 = DIRECTION('',(2.023050952281E-02,-0.9997953423,0.));
#1458 = DIRECTION('',(-0.9997953423,-2.023050952281E-02,0.));
#1459 = ADVANCED_FACE('',(#1460),#1466,.T.);
#1460 = FACE_BOUND('',#1461,.T.);
#1461 = EDGE_LOOP('',(#1462,#1463,#1464,#1465));
#1462 = ORIENTED_EDGE('',*,*,#1431,.T.);
#1463 = ORIENTED_EDGE('',*,*,#545,.T.);
#1464 = ORIENTED_EDGE('',*,*,#964,.F.);
#1465 = ORIENTED_EDGE('',*,*,#268,.F.);
#1466 = PLANE('',#1467);
#1467 = AXIS2_PLACEMENT_3D('',#1468,#1469,#1470);
#1468 = CARTESIAN_POINT('',(172.85714285714,10.133341209662,0.));
#1469 = DIRECTION('',(1.042418527086E-02,0.999945666705,0.));
#1470 = DIRECTION('',(0.999945666705,-1.042418527086E-02,0.));
#1471 = ADVANCED_FACE('',(#1472),#1483,.T.);
#1472 = FACE_BOUND('',#1473,.T.);
#1473 = EDGE_LOOP('',(#1474,#1480,#1481,#1482));
#1474 = ORIENTED_EDGE('',*,*,#1475,.T.);
#1475 = EDGE_CURVE('',#294,#770,#1476,.T.);
#1476 = LINE('',#1477,#1478);
#1477 = CARTESIAN_POINT('',(164.28571428571,-10.25509996861,0.));
#1478 = VECTOR('',#1479,1.);
#1479 = DIRECTION('',(0.,0.,1.));
#1480 = ORIENTED_EDGE('',*,*,#769,.T.);
#1481 = ORIENTED_EDGE('',*,*,#1446,.F.);
#1482 = ORIENTED_EDGE('',*,*,#301,.F.);
#1483 = PLANE('',#1484);
#1484 = AXIS2_PLACEMENT_3D('',#1485,#1486,#1487);
#1485 = CARTESIAN_POINT('',(164.28571428571,-10.25509996861,0.));
#1486 = DIRECTION('',(1.739411716871E-02,-0.9998487109,0.));
#1487 = DIRECTION('',(-0.9998487109,-1.739411716871E-02,0.));
#1488 = ADVANCED_FACE('',(#1489),#1495,.T.);
#1489 = FACE_BOUND('',#1490,.T.);
#1490 = EDGE_LOOP('',(#1491,#1492,#1493,#1494));
#1491 = ORIENTED_EDGE('',*,*,#947,.T.);
#1492 = ORIENTED_EDGE('',*,*,#777,.T.);
#1493 = ORIENTED_EDGE('',*,*,#1475,.F.);
#1494 = ORIENTED_EDGE('',*,*,#293,.F.);
#1495 = PLANE('',#1496);
#1496 = AXIS2_PLACEMENT_3D('',#1497,#1498,#1499);
#1497 = CARTESIAN_POINT('',(172.85714285714,-10.13334120966,0.));
#1498 = DIRECTION('',(1.420375554797E-02,-0.999899121576,0.));
#1499 = DIRECTION('',(-0.999899121576,-1.420375554797E-02,0.));
#1500 = ADVANCED_FACE('',(#1501),#1512,.F.);
#1501 = FACE_BOUND('',#1502,.F.);
#1502 = EDGE_LOOP('',(#1503,#1504,#1510,#1511));
#1503 = ORIENTED_EDGE('',*,*,#805,.F.);
#1504 = ORIENTED_EDGE('',*,*,#1505,.F.);
#1505 = EDGE_CURVE('',#414,#806,#1506,.T.);
#1506 = LINE('',#1507,#1508);
#1507 = CARTESIAN_POINT('',(197.1,-6.,-2.));
#1508 = VECTOR('',#1509,1.);
#1509 = DIRECTION('',(0.,0.,1.));
#1510 = ORIENTED_EDGE('',*,*,#413,.T.);
#1511 = ORIENTED_EDGE('',*,*,#1505,.T.);
#1512 = CYLINDRICAL_SURFACE('',#1513,1.1);
#1513 = AXIS2_PLACEMENT_3D('',#1514,#1515,#1516);
#1514 = CARTESIAN_POINT('',(196.,-6.,-2.));
#1515 = DIRECTION('',(0.,0.,1.));
#1516 = DIRECTION('',(1.,0.,0.));
#1517 = ADVANCED_FACE('',(#1518),#1529,.F.);
#1518 = FACE_BOUND('',#1519,.F.);
#1519 = EDGE_LOOP('',(#1520,#1521,#1527,#1528));
#1520 = ORIENTED_EDGE('',*,*,#794,.F.);
#1521 = ORIENTED_EDGE('',*,*,#1522,.F.);
#1522 = EDGE_CURVE('',#425,#795,#1523,.T.);
#1523 = LINE('',#1524,#1525);
#1524 = CARTESIAN_POINT('',(185.1,-6.,-2.));
#1525 = VECTOR('',#1526,1.);
#1526 = DIRECTION('',(0.,0.,1.));
#1527 = ORIENTED_EDGE('',*,*,#424,.T.);
#1528 = ORIENTED_EDGE('',*,*,#1522,.T.);
#1529 = CYLINDRICAL_SURFACE('',#1530,1.1);
#1530 = AXIS2_PLACEMENT_3D('',#1531,#1532,#1533);
#1531 = CARTESIAN_POINT('',(184.,-6.,-2.));
#1532 = DIRECTION('',(0.,0.,1.));
#1533 = DIRECTION('',(1.,0.,0.));
#1534 = ADVANCED_FACE('',(#1535),#1546,.F.);
#1535 = FACE_BOUND('',#1536,.F.);
#1536 = EDGE_LOOP('',(#1537,#1538,#1544,#1545));
#1537 = ORIENTED_EDGE('',*,*,#906,.F.);
#1538 = ORIENTED_EDGE('',*,*,#1539,.F.);
#1539 = EDGE_CURVE('',#436,#907,#1540,.T.);
#1540 = LINE('',#1541,#1542);
#1541 = CARTESIAN_POINT('',(193.,-7.347880794884E-16,-2.));
#1542 = VECTOR('',#1543,1.);
#1543 = DIRECTION('',(0.,0.,1.));
#1544 = ORIENTED_EDGE('',*,*,#435,.T.);
#1545 = ORIENTED_EDGE('',*,*,#1539,.T.);
#1546 = CYLINDRICAL_SURFACE('',#1547,3.);
#1547 = AXIS2_PLACEMENT_3D('',#1548,#1549,#1550);
#1548 = CARTESIAN_POINT('',(190.,0.,-2.));
#1549 = DIRECTION('',(0.,0.,1.));
#1550 = DIRECTION('',(1.,0.,0.));
#1551 = ADVANCED_FACE('',(#1552),#1571,.F.);
#1552 = FACE_BOUND('',#1553,.F.);
#1553 = EDGE_LOOP('',(#1554,#1563,#1569,#1570));
#1554 = ORIENTED_EDGE('',*,*,#1555,.F.);
#1555 = EDGE_CURVE('',#1556,#1556,#1558,.T.);
#1556 = VERTEX_POINT('',#1557);
#1557 = CARTESIAN_POINT('',(161.75,-2.694222958124E-16,9.));
#1558 = CIRCLE('',#1559,1.1);
#1559 = AXIS2_PLACEMENT_3D('',#1560,#1561,#1562);
#1560 = CARTESIAN_POINT('',(160.65,0.,9.));
#1561 = DIRECTION('',(0.,0.,1.));
#1562 = DIRECTION('',(1.,0.,0.));
#1563 = ORIENTED_EDGE('',*,*,#1564,.F.);
#1564 = EDGE_CURVE('',#447,#1556,#1565,.T.);
#1565 = LINE('',#1566,#1567);
#1566 = CARTESIAN_POINT('',(161.75,-2.694222958124E-16,-2.));
#1567 = VECTOR('',#1568,1.);
#1568 = DIRECTION('',(0.,0.,1.));
#1569 = ORIENTED_EDGE('',*,*,#446,.T.);
#1570 = ORIENTED_EDGE('',*,*,#1564,.T.);
#1571 = CYLINDRICAL_SURFACE('',#1572,1.1);
#1572 = AXIS2_PLACEMENT_3D('',#1573,#1574,#1575);
#1573 = CARTESIAN_POINT('',(160.65,0.,-2.));
#1574 = DIRECTION('',(0.,0.,1.));
#1575 = DIRECTION('',(1.,0.,0.));
#1576 = ADVANCED_FACE('',(#1577),#1596,.F.);
#1577 = FACE_BOUND('',#1578,.F.);
#1578 = EDGE_LOOP('',(#1579,#1588,#1594,#1595));
#1579 = ORIENTED_EDGE('',*,*,#1580,.F.);
#1580 = EDGE_CURVE('',#1581,#1581,#1583,.T.);
#1581 = VERTEX_POINT('',#1582);
#1582 = CARTESIAN_POINT('',(129.25,-2.694222958124E-16,9.));
#1583 = CIRCLE('',#1584,1.1);
#1584 = AXIS2_PLACEMENT_3D('',#1585,#1586,#1587);
#1585 = CARTESIAN_POINT('',(128.15,0.,9.));
#1586 = DIRECTION('',(0.,0.,1.));
#1587 = DIRECTION('',(1.,0.,0.));
#1588 = ORIENTED_EDGE('',*,*,#1589,.F.);
#1589 = EDGE_CURVE('',#458,#1581,#1590,.T.);
#1590 = LINE('',#1591,#1592);
#1591 = CARTESIAN_POINT('',(129.25,-2.694222958124E-16,-2.));
#1592 = VECTOR('',#1593,1.);
#1593 = DIRECTION('',(0.,0.,1.));
#1594 = ORIENTED_EDGE('',*,*,#457,.T.);
#1595 = ORIENTED_EDGE('',*,*,#1589,.T.);
#1596 = CYLINDRICAL_SURFACE('',#1597,1.1);
#1597 = AXIS2_PLACEMENT_3D('',#1598,#1599,#1600);
#1598 = CARTESIAN_POINT('',(128.15,0.,-2.));
#1599 = DIRECTION('',(0.,0.,1.));
#1600 = DIRECTION('',(1.,0.,0.));
#1601 = ADVANCED_FACE('',(#1602),#1613,.F.);
#1602 = FACE_BOUND('',#1603,.F.);
#1603 = EDGE_LOOP('',(#1604,#1605,#1611,#1612));
#1604 = ORIENTED_EDGE('',*,*,#827,.F.);
#1605 = ORIENTED_EDGE('',*,*,#1606,.F.);
#1606 = EDGE_CURVE('',#469,#828,#1607,.T.);
#1607 = LINE('',#1608,#1609);
#1608 = CARTESIAN_POINT('',(63.6,-3.918869757272E-16,-2.));
#1609 = VECTOR('',#1610,1.);
#1610 = DIRECTION('',(0.,0.,1.));
#1611 = ORIENTED_EDGE('',*,*,#468,.T.);
#1612 = ORIENTED_EDGE('',*,*,#1606,.T.);
#1613 = CYLINDRICAL_SURFACE('',#1614,1.6);
#1614 = AXIS2_PLACEMENT_3D('',#1615,#1616,#1617);
#1615 = CARTESIAN_POINT('',(62.,0.,-2.));
#1616 = DIRECTION('',(0.,0.,1.));
#1617 = DIRECTION('',(1.,0.,0.));
#1618 = ADVANCED_FACE('',(#1619),#1630,.F.);
#1619 = FACE_BOUND('',#1620,.F.);
#1620 = EDGE_LOOP('',(#1621,#1622,#1628,#1629));
#1621 = ORIENTED_EDGE('',*,*,#816,.F.);
#1622 = ORIENTED_EDGE('',*,*,#1623,.F.);
#1623 = EDGE_CURVE('',#480,#817,#1624,.T.);
#1624 = LINE('',#1625,#1626);
#1625 = CARTESIAN_POINT('',(53.6,-3.918869757272E-16,-2.));
#1626 = VECTOR('',#1627,1.);
#1627 = DIRECTION('',(0.,0.,1.));
#1628 = ORIENTED_EDGE('',*,*,#479,.T.);
#1629 = ORIENTED_EDGE('',*,*,#1623,.T.);
#1630 = CYLINDRICAL_SURFACE('',#1631,1.6);
#1631 = AXIS2_PLACEMENT_3D('',#1632,#1633,#1634);
#1632 = CARTESIAN_POINT('',(52.,0.,-2.));
#1633 = DIRECTION('',(0.,0.,1.));
#1634 = DIRECTION('',(1.,0.,0.));
#1635 = ADVANCED_FACE('',(#1636),#1647,.F.);
#1636 = FACE_BOUND('',#1637,.F.);
#1637 = EDGE_LOOP('',(#1638,#1639,#1645,#1646));
#1638 = ORIENTED_EDGE('',*,*,#928,.F.);
#1639 = ORIENTED_EDGE('',*,*,#1640,.F.);
#1640 = EDGE_CURVE('',#491,#929,#1641,.T.);
#1641 = LINE('',#1642,#1643);
#1642 = CARTESIAN_POINT('',(197.1,6.,-2.));
#1643 = VECTOR('',#1644,1.);
#1644 = DIRECTION('',(0.,0.,1.));
#1645 = ORIENTED_EDGE('',*,*,#490,.T.);
#1646 = ORIENTED_EDGE('',*,*,#1640,.T.);
#1647 = CYLINDRICAL_SURFACE('',#1648,1.1);
#1648 = AXIS2_PLACEMENT_3D('',#1649,#1650,#1651);
#1649 = CARTESIAN_POINT('',(196.,6.,-2.));
#1650 = DIRECTION('',(0.,0.,1.));
#1651 = DIRECTION('',(1.,0.,0.));
#1652 = ADVANCED_FACE('',(#1653),#1664,.F.);
#1653 = FACE_BOUND('',#1654,.F.);
#1654 = EDGE_LOOP('',(#1655,#1656,#1662,#1663));
#1655 = ORIENTED_EDGE('',*,*,#917,.F.);
#1656 = ORIENTED_EDGE('',*,*,#1657,.F.);
#1657 = EDGE_CURVE('',#502,#918,#1658,.T.);
#1658 = LINE('',#1659,#1660);
#1659 = CARTESIAN_POINT('',(185.1,6.,-2.));
#1660 = VECTOR('',#1661,1.);
#1661 = DIRECTION('',(0.,0.,1.));
#1662 = ORIENTED_EDGE('',*,*,#501,.T.);
#1663 = ORIENTED_EDGE('',*,*,#1657,.T.);
#1664 = CYLINDRICAL_SURFACE('',#1665,1.1);
#1665 = AXIS2_PLACEMENT_3D('',#1666,#1667,#1668);
#1666 = CARTESIAN_POINT('',(184.,6.,-2.));
#1667 = DIRECTION('',(0.,0.,1.));
#1668 = DIRECTION('',(1.,0.,0.));
#1669 = ADVANCED_FACE('',(#1670),#1695,.T.);
#1670 = FACE_BOUND('',#1671,.T.);
#1671 = EDGE_LOOP('',(#1672,#1682,#1688,#1689));
#1672 = ORIENTED_EDGE('',*,*,#1673,.F.);
#1673 = EDGE_CURVE('',#1674,#1676,#1678,.T.);
#1674 = VERTEX_POINT('',#1675);
#1675 = CARTESIAN_POINT('',(82.,-4.,4.8));
#1676 = VERTEX_POINT('',#1677);
#1677 = CARTESIAN_POINT('',(121.4,-4.,4.8));
#1678 = LINE('',#1679,#1680);
#1679 = CARTESIAN_POINT('',(82.,-4.,4.8));
#1680 = VECTOR('',#1681,1.);
#1681 = DIRECTION('',(1.,0.,0.));
#1682 = ORIENTED_EDGE('',*,*,#1683,.T.);
#1683 = EDGE_CURVE('',#1674,#841,#1684,.T.);
#1684 = LINE('',#1685,#1686);
#1685 = CARTESIAN_POINT('',(82.,-4.,4.8));
#1686 = VECTOR('',#1687,1.);
#1687 = DIRECTION('',(0.,0.,1.));
#1688 = ORIENTED_EDGE('',*,*,#838,.F.);
#1689 = ORIENTED_EDGE('',*,*,#1690,.F.);
#1690 = EDGE_CURVE('',#1676,#839,#1691,.T.);
#1691 = LINE('',#1692,#1693);
#1692 = CARTESIAN_POINT('',(121.4,-4.,4.8));
#1693 = VECTOR('',#1694,1.);
#1694 = DIRECTION('',(0.,0.,1.));
#1695 = PLANE('',#1696);
#1696 = AXIS2_PLACEMENT_3D('',#1697,#1698,#1699);
#1697 = CARTESIAN_POINT('',(82.,-4.,4.8));
#1698 = DIRECTION('',(0.,1.,0.));
#1699 = DIRECTION('',(1.,0.,0.));
#1700 = ADVANCED_FACE('',(#1701),#1719,.T.);
#1701 = FACE_BOUND('',#1702,.T.);
#1702 = EDGE_LOOP('',(#1703,#1711,#1712,#1713));
#1703 = ORIENTED_EDGE('',*,*,#1704,.F.);
#1704 = EDGE_CURVE('',#1676,#1705,#1707,.T.);
#1705 = VERTEX_POINT('',#1706);
#1706 = CARTESIAN_POINT('',(121.4,4.,4.8));
#1707 = LINE('',#1708,#1709);
#1708 = CARTESIAN_POINT('',(121.4,-4.,4.8));
#1709 = VECTOR('',#1710,1.);
#1710 = DIRECTION('',(0.,1.,0.));
#1711 = ORIENTED_EDGE('',*,*,#1690,.T.);
#1712 = ORIENTED_EDGE('',*,*,#864,.F.);
#1713 = ORIENTED_EDGE('',*,*,#1714,.F.);
#1714 = EDGE_CURVE('',#1705,#857,#1715,.T.);
#1715 = LINE('',#1716,#1717);
#1716 = CARTESIAN_POINT('',(121.4,4.,4.8));
#1717 = VECTOR('',#1718,1.);
#1718 = DIRECTION('',(0.,0.,1.));
#1719 = PLANE('',#1720);
#1720 = AXIS2_PLACEMENT_3D('',#1721,#1722,#1723);
#1721 = CARTESIAN_POINT('',(121.4,-4.,4.8));
#1722 = DIRECTION('',(-1.,0.,0.));
#1723 = DIRECTION('',(0.,1.,0.));
#1724 = ADVANCED_FACE('',(#1725),#1743,.T.);
#1725 = FACE_BOUND('',#1726,.T.);
#1726 = EDGE_LOOP('',(#1727,#1735,#1741,#1742));
#1727 = ORIENTED_EDGE('',*,*,#1728,.F.);
#1728 = EDGE_CURVE('',#1729,#1674,#1731,.T.);
#1729 = VERTEX_POINT('',#1730);
#1730 = CARTESIAN_POINT('',(82.,4.,4.8));
#1731 = LINE('',#1732,#1733);
#1732 = CARTESIAN_POINT('',(82.,4.,4.8));
#1733 = VECTOR('',#1734,1.);
#1734 = DIRECTION('',(0.,-1.,0.));
#1735 = ORIENTED_EDGE('',*,*,#1736,.T.);
#1736 = EDGE_CURVE('',#1729,#849,#1737,.T.);
#1737 = LINE('',#1738,#1739);
#1738 = CARTESIAN_POINT('',(82.,4.,4.8));
#1739 = VECTOR('',#1740,1.);
#1740 = DIRECTION('',(0.,0.,1.));
#1741 = ORIENTED_EDGE('',*,*,#848,.F.);
#1742 = ORIENTED_EDGE('',*,*,#1683,.F.);
#1743 = PLANE('',#1744);
#1744 = AXIS2_PLACEMENT_3D('',#1745,#1746,#1747);
#1745 = CARTESIAN_POINT('',(82.,4.,4.8));
#1746 = DIRECTION('',(1.,0.,0.));
#1747 = DIRECTION('',(0.,-1.,0.));
#1748 = ADVANCED_FACE('',(#1749),#1760,.T.);
#1749 = FACE_BOUND('',#1750,.T.);
#1750 = EDGE_LOOP('',(#1751,#1757,#1758,#1759));
#1751 = ORIENTED_EDGE('',*,*,#1752,.F.);
#1752 = EDGE_CURVE('',#1705,#1729,#1753,.T.);
#1753 = LINE('',#1754,#1755);
#1754 = CARTESIAN_POINT('',(121.4,4.,4.8));
#1755 = VECTOR('',#1756,1.);
#1756 = DIRECTION('',(-1.,0.,0.));
#1757 = ORIENTED_EDGE('',*,*,#1714,.T.);
#1758 = ORIENTED_EDGE('',*,*,#856,.F.);
#1759 = ORIENTED_EDGE('',*,*,#1736,.F.);
#1760 = PLANE('',#1761);
#1761 = AXIS2_PLACEMENT_3D('',#1762,#1763,#1764);
#1762 = CARTESIAN_POINT('',(121.4,4.,4.8));
#1763 = DIRECTION('',(0.,-1.,0.));
#1764 = DIRECTION('',(-1.,0.,0.));
#1765 = ADVANCED_FACE('',(#1766),#1791,.F.);
#1766 = FACE_BOUND('',#1767,.F.);
#1767 = EDGE_LOOP('',(#1768,#1776,#1784,#1790));
#1768 = ORIENTED_EDGE('',*,*,#1769,.T.);
#1769 = EDGE_CURVE('',#873,#1770,#1772,.T.);
#1770 = VERTEX_POINT('',#1771);
#1771 = CARTESIAN_POINT('',(126.4,7.,9.));
#1772 = LINE('',#1773,#1774);
#1773 = CARTESIAN_POINT('',(126.4,7.,6.));
#1774 = VECTOR('',#1775,1.);
#1775 = DIRECTION('',(0.,0.,1.));
#1776 = ORIENTED_EDGE('',*,*,#1777,.T.);
#1777 = EDGE_CURVE('',#1770,#1778,#1780,.T.);
#1778 = VERTEX_POINT('',#1779);
#1779 = CARTESIAN_POINT('',(126.4,-7.,9.));
#1780 = LINE('',#1781,#1782);
#1781 = CARTESIAN_POINT('',(126.4,7.,9.));
#1782 = VECTOR('',#1783,1.);
#1783 = DIRECTION('',(0.,-1.,0.));
#1784 = ORIENTED_EDGE('',*,*,#1785,.F.);
#1785 = EDGE_CURVE('',#875,#1778,#1786,.T.);
#1786 = LINE('',#1787,#1788);
#1787 = CARTESIAN_POINT('',(126.4,-7.,6.));
#1788 = VECTOR('',#1789,1.);
#1789 = DIRECTION('',(0.,0.,1.));
#1790 = ORIENTED_EDGE('',*,*,#872,.F.);
#1791 = PLANE('',#1792);
#1792 = AXIS2_PLACEMENT_3D('',#1793,#1794,#1795);
#1793 = CARTESIAN_POINT('',(126.4,7.,6.));
#1794 = DIRECTION('',(1.,0.,0.));
#1795 = DIRECTION('',(0.,-1.,0.));
#1796 = ADVANCED_FACE('',(#1797),#1815,.F.);
#1797 = FACE_BOUND('',#1798,.F.);
#1798 = EDGE_LOOP('',(#1799,#1807,#1813,#1814));
#1799 = ORIENTED_EDGE('',*,*,#1800,.T.);
#1800 = EDGE_CURVE('',#883,#1801,#1803,.T.);
#1801 = VERTEX_POINT('',#1802);
#1802 = CARTESIAN_POINT('',(162.4,7.,9.));
#1803 = LINE('',#1804,#1805);
#1804 = CARTESIAN_POINT('',(162.4,7.,6.));
#1805 = VECTOR('',#1806,1.);
#1806 = DIRECTION('',(0.,0.,1.));
#1807 = ORIENTED_EDGE('',*,*,#1808,.T.);
#1808 = EDGE_CURVE('',#1801,#1770,#1809,.T.);
#1809 = LINE('',#1810,#1811);
#1810 = CARTESIAN_POINT('',(162.4,7.,9.));
#1811 = VECTOR('',#1812,1.);
#1812 = DIRECTION('',(-1.,0.,0.));
#1813 = ORIENTED_EDGE('',*,*,#1769,.F.);
#1814 = ORIENTED_EDGE('',*,*,#882,.F.);
#1815 = PLANE('',#1816);
#1816 = AXIS2_PLACEMENT_3D('',#1817,#1818,#1819);
#1817 = CARTESIAN_POINT('',(162.4,7.,6.));
#1818 = DIRECTION('',(0.,-1.,0.));
#1819 = DIRECTION('',(-1.,0.,0.));
#1820 = ADVANCED_FACE('',(#1821),#1839,.F.);
#1821 = FACE_BOUND('',#1822,.F.);
#1822 = EDGE_LOOP('',(#1823,#1824,#1832,#1838));
#1823 = ORIENTED_EDGE('',*,*,#1785,.T.);
#1824 = ORIENTED_EDGE('',*,*,#1825,.T.);
#1825 = EDGE_CURVE('',#1778,#1826,#1828,.T.);
#1826 = VERTEX_POINT('',#1827);
#1827 = CARTESIAN_POINT('',(162.4,-7.,9.));
#1828 = LINE('',#1829,#1830);
#1829 = CARTESIAN_POINT('',(126.4,-7.,9.));
#1830 = VECTOR('',#1831,1.);
#1831 = DIRECTION('',(1.,0.,0.));
#1832 = ORIENTED_EDGE('',*,*,#1833,.F.);
#1833 = EDGE_CURVE('',#891,#1826,#1834,.T.);
#1834 = LINE('',#1835,#1836);
#1835 = CARTESIAN_POINT('',(162.4,-7.,6.));
#1836 = VECTOR('',#1837,1.);
#1837 = DIRECTION('',(0.,0.,1.));
#1838 = ORIENTED_EDGE('',*,*,#898,.F.);
#1839 = PLANE('',#1840);
#1840 = AXIS2_PLACEMENT_3D('',#1841,#1842,#1843);
#1841 = CARTESIAN_POINT('',(126.4,-7.,6.));
#1842 = DIRECTION('',(0.,1.,0.));
#1843 = DIRECTION('',(1.,0.,0.));
#1844 = ADVANCED_FACE('',(#1845),#1856,.F.);
#1845 = FACE_BOUND('',#1846,.F.);
#1846 = EDGE_LOOP('',(#1847,#1848,#1854,#1855));
#1847 = ORIENTED_EDGE('',*,*,#1833,.T.);
#1848 = ORIENTED_EDGE('',*,*,#1849,.T.);
#1849 = EDGE_CURVE('',#1826,#1801,#1850,.T.);
#1850 = LINE('',#1851,#1852);
#1851 = CARTESIAN_POINT('',(162.4,-7.,9.));
#1852 = VECTOR('',#1853,1.);
#1853 = DIRECTION('',(0.,1.,0.));
#1854 = ORIENTED_EDGE('',*,*,#1800,.F.);
#1855 = ORIENTED_EDGE('',*,*,#890,.F.);
#1856 = PLANE('',#1857);
#1857 = AXIS2_PLACEMENT_3D('',#1858,#1859,#1860);
#1858 = CARTESIAN_POINT('',(162.4,-7.,6.));
#1859 = DIRECTION('',(-1.,0.,0.));
#1860 = DIRECTION('',(0.,1.,0.));
#1861 = ADVANCED_FACE('',(#1862,#1868,#1871),#1874,.T.);
#1862 = FACE_BOUND('',#1863,.T.);
#1863 = EDGE_LOOP('',(#1864,#1865,#1866,#1867));
#1864 = ORIENTED_EDGE('',*,*,#1777,.T.);
#1865 = ORIENTED_EDGE('',*,*,#1825,.T.);
#1866 = ORIENTED_EDGE('',*,*,#1849,.T.);
#1867 = ORIENTED_EDGE('',*,*,#1808,.T.);
#1868 = FACE_BOUND('',#1869,.T.);
#1869 = EDGE_LOOP('',(#1870));
#1870 = ORIENTED_EDGE('',*,*,#1580,.F.);
#1871 = FACE_BOUND('',#1872,.T.);
#1872 = EDGE_LOOP('',(#1873));
#1873 = ORIENTED_EDGE('',*,*,#1555,.F.);
#1874 = PLANE('',#1875);
#1875 = AXIS2_PLACEMENT_3D('',#1876,#1877,#1878);
#1876 = CARTESIAN_POINT('',(144.4,0.,9.));
#1877 = DIRECTION('',(0.,0.,1.));
#1878 = DIRECTION('',(1.,0.,0.));
#1879 = ADVANCED_FACE('',(#1880),#1886,.T.);
#1880 = FACE_BOUND('',#1881,.T.);
#1881 = EDGE_LOOP('',(#1882,#1883,#1884,#1885));
#1882 = ORIENTED_EDGE('',*,*,#1728,.T.);
#1883 = ORIENTED_EDGE('',*,*,#1673,.T.);
#1884 = ORIENTED_EDGE('',*,*,#1704,.T.);
#1885 = ORIENTED_EDGE('',*,*,#1752,.T.);
#1886 = PLANE('',#1887);
#1887 = AXIS2_PLACEMENT_3D('',#1888,#1889,#1890);
#1888 = CARTESIAN_POINT('',(101.7,0.,4.8));
#1889 = DIRECTION('',(0.,0.,1.));
#1890 = DIRECTION('',(1.,0.,0.));
#1891 = ( GEOMETRIC_REPRESENTATION_CONTEXT(3) 
GLOBAL_UNCERTAINTY_ASSIGNED_CONTEXT((#1895)) 
GLOBAL_UNIT_ASSIGNED_CONTEXT((#1892,#1893,#1894)) REPRESENTATION_CONTEXT
('Context #1','3D Context with UNIT and UNCERTAINTY') );
#1892 = ( LENGTH_UNIT() NAMED_UNIT(*) SI_UNIT(.MILLI.,.METRE.) );
#1893 = ( NAMED_UNIT(*) PLANE_ANGLE_UNIT() SI_UNIT($,.RADIAN.) );
#1894 = ( NAMED_UNIT(*) SI_UNIT($,.STERADIAN.) SOLID_ANGLE_UNIT() );
#1895 = UNCERTAINTY_MEASURE_WITH_UNIT(LENGTH_MEASURE(1.E-07),#1892,
  'distance_accuracy_value','confusion accuracy');
#1896 = PRODUCT_RELATED_PRODUCT_CATEGORY('part',$,(#7));
ENDSEC;
END-ISO-10303-21;
